<?xml version="1.0" encoding="UTF-8"?>
<!DOCTYPE svg PUBLIC "-//W3C//DTD SVG 1.1//EN" "http://www.w3.org/Graphics/SVG/1.1/DTD/svg11.dtd">
<svg xmlns="http://www.w3.org/2000/svg" version="1.1" width="512px" height="512px" style="shape-rendering:geometricPrecision; text-rendering:geometricPrecision; image-rendering:optimizeQuality; fill-rule:evenodd; clip-rule:evenodd" xmlns:xlink="http://www.w3.org/1999/xlink">
<g><path style="opacity:1" fill="#e0ecf9" d="M 396.5,-0.5 C 399.5,-0.5 402.5,-0.5 405.5,-0.5C 405.5,9.5 405.5,19.5 405.5,29.5C 398.545,30.2798 393.711,33.9465 391,40.5C 390.5,66.8312 390.333,93.1646 390.5,119.5C 390.5,200.5 390.5,281.5 390.5,362.5C 360.02,373.476 345.187,395.143 346,427.5C 352.06,460.728 371.893,478.728 405.5,481.5C 405.5,491.5 405.5,501.5 405.5,511.5C 400.833,511.5 396.167,511.5 391.5,511.5C 350.119,501.785 324.786,476.119 315.5,434.5C 312.517,395.199 327.351,364.866 360,343.5C 360.5,314.169 360.667,284.835 360.5,255.5C 360.5,207.833 360.5,160.167 360.5,112.5C 360.044,85.4572 360.544,58.4572 362,31.5C 367.65,14.3442 379.15,3.67757 396.5,-0.5 Z"/></g>
<g><path style="opacity:1" fill="#c8d9f2" d="M 405.5,-0.5 C 408.833,-0.5 412.167,-0.5 415.5,-0.5C 434.698,5.20034 446.531,17.867 451,37.5C 451.333,139.167 451.667,240.833 452,342.5C 486.707,365.596 501.04,397.929 495,439.5C 484.689,478.647 459.855,502.647 420.5,511.5C 415.5,511.5 410.5,511.5 405.5,511.5C 405.5,501.5 405.5,491.5 405.5,481.5C 437.371,479.128 457.204,462.461 465,431.5C 468.099,400.86 455.933,378.693 428.5,365C 425.904,363.864 423.237,363.031 420.5,362.5C 420.5,281.833 420.5,201.167 420.5,120.5C 420.5,120.167 420.5,119.833 420.5,119.5C 420.667,93.1646 420.5,66.8312 420,40.5C 417.663,33.5778 412.829,29.9112 405.5,29.5C 405.5,19.5 405.5,9.5 405.5,-0.5 Z"/></g>
<g><path style="opacity:1" fill="#c8daf3" d="M 405.5,29.5 C 405.5,59.5 405.5,89.5 405.5,119.5C 400.5,119.5 395.5,119.5 390.5,119.5C 390.333,93.1646 390.5,66.8312 391,40.5C 393.711,33.9465 398.545,30.2798 405.5,29.5 Z"/></g>
<g><path style="opacity:1" fill="#a2bbe7" d="M 405.5,29.5 C 412.829,29.9112 417.663,33.5778 420,40.5C 420.5,66.8312 420.667,93.1646 420.5,119.5C 415.5,119.5 410.5,119.5 405.5,119.5C 405.5,89.5 405.5,59.5 405.5,29.5 Z"/></g>
<g><path style="opacity:1" fill="#cde63e" d="M 207.5,47.5 C 207.5,64.5 207.5,81.5 207.5,98.5C 207.5,129.5 207.5,160.5 207.5,191.5C 183.831,191.333 160.164,191.5 136.5,192C 118.831,198.684 110.331,211.517 111,230.5C 107.153,244.683 97.986,252.849 83.5,255C 55.502,255.5 27.502,255.667 -0.5,255.5C -0.5,249.833 -0.5,244.167 -0.5,238.5C 7.88225,166.546 42.8822,111.712 104.5,74C 136.459,55.9269 170.792,47.0936 207.5,47.5 Z"/></g>
<g><path style="opacity:1" fill="#1f70ec" d="M 207.5,47.5 C 267.67,48.098 318.67,69.7647 360.5,112.5C 360.5,160.167 360.5,207.833 360.5,255.5C 317.832,255.333 275.165,255.5 232.5,256C 219.574,259.425 211.574,267.592 208.5,280.5C 207.502,251.005 207.169,221.338 207.5,191.5C 232.552,191.962 257.552,191.462 282.5,190C 303.127,179.454 308.627,163.62 299,142.5C 294.005,135.084 287.172,130.251 278.5,128C 263.833,127.667 249.167,127.333 234.5,127C 219.458,123.127 210.458,113.627 207.5,98.5C 207.5,81.5 207.5,64.5 207.5,47.5 Z"/></g>
<g><path style="opacity:1" fill="#38385c" d="M 511.5,59.5 C 511.5,69.8333 511.5,80.1667 511.5,90.5C 497.167,90.5 482.833,90.5 468.5,90.5C 468.5,80.1667 468.5,69.8333 468.5,59.5C 482.833,59.5 497.167,59.5 511.5,59.5 Z"/></g>
<g><path style="opacity:1" fill="#51cd51" d="M 207.5,98.5 C 210.458,113.627 219.458,123.127 234.5,127C 249.167,127.333 263.833,127.667 278.5,128C 287.172,130.251 294.005,135.084 299,142.5C 308.627,163.62 303.127,179.454 282.5,190C 257.552,191.462 232.552,191.962 207.5,191.5C 207.5,160.5 207.5,129.5 207.5,98.5 Z"/></g>
<g><path style="opacity:1" fill="#38385c" d="M 468.5,119.5 C 478.833,119.5 489.167,119.5 499.5,119.5C 499.5,129.833 499.5,140.167 499.5,150.5C 489.167,150.5 478.833,150.5 468.5,150.5C 468.5,140.167 468.5,129.833 468.5,119.5 Z"/></g>
<g><path style="opacity:1" fill="#eb9452" d="M 390.5,119.5 C 395.5,119.5 400.5,119.5 405.5,119.5C 410.5,119.5 415.5,119.5 420.5,119.5C 420.5,119.833 420.5,120.167 420.5,120.5C 415.5,120.5 410.5,120.5 405.5,120.5C 400.833,120.5 396.167,120.5 391.5,120.5C 391.833,201.335 391.499,282.002 390.5,362.5C 390.5,281.5 390.5,200.5 390.5,119.5 Z"/></g>
<g><path style="opacity:1" fill="#f37013" d="M 405.5,120.5 C 405.5,215.5 405.5,310.5 405.5,405.5C 410.762,405.195 415.928,405.529 421,406.5C 421.5,416.494 421.666,426.494 421.5,436.5C 416.167,436.5 410.833,436.5 405.5,436.5C 405.5,451.5 405.5,466.5 405.5,481.5C 371.893,478.728 352.06,460.728 346,427.5C 345.187,395.143 360.02,373.476 390.5,362.5C 391.499,282.002 391.833,201.335 391.5,120.5C 396.167,120.5 400.833,120.5 405.5,120.5 Z"/></g>
<g><path style="opacity:1" fill="#e74519" d="M 405.5,120.5 C 410.5,120.5 415.5,120.5 420.5,120.5C 420.5,201.167 420.5,281.833 420.5,362.5C 423.237,363.031 425.904,363.864 428.5,365C 455.933,378.693 468.099,400.86 465,431.5C 457.204,462.461 437.371,479.128 405.5,481.5C 405.5,466.5 405.5,451.5 405.5,436.5C 410.833,436.5 416.167,436.5 421.5,436.5C 421.666,426.494 421.5,416.494 421,406.5C 415.928,405.529 410.762,405.195 405.5,405.5C 405.5,310.5 405.5,215.5 405.5,120.5 Z"/></g>
<g><path style="opacity:1" fill="#38385c" d="M 511.5,179.5 C 511.5,189.833 511.5,200.167 511.5,210.5C 497.167,210.5 482.833,210.5 468.5,210.5C 468.5,200.167 468.5,189.833 468.5,179.5C 482.833,179.5 497.167,179.5 511.5,179.5 Z"/></g>
<g><path style="opacity:1" fill="#3e9cf9" d="M 207.5,191.5 C 207.169,221.338 207.502,251.005 208.5,280.5C 207.222,285.135 207.222,289.802 208.5,294.5C 207.502,323.995 207.169,353.662 207.5,383.5C 194.496,383.333 181.496,383.5 168.5,384C 155.559,387.941 147.392,396.441 144,409.5C 143.5,424.163 143.333,438.83 143.5,453.5C 83.3203,433.157 40.487,393.824 15,335.5C 6.97974,315.419 1.81307,294.752 -0.5,273.5C -0.5,267.5 -0.5,261.5 -0.5,255.5C 27.502,255.667 55.502,255.5 83.5,255C 97.986,252.849 107.153,244.683 111,230.5C 110.331,211.517 118.831,198.684 136.5,192C 160.164,191.5 183.831,191.333 207.5,191.5 Z"/></g>
<g><path style="opacity:1" fill="#37365d" d="M 469.5,239.5 C 479.5,239.5 489.5,239.5 499.5,239.5C 499.5,249.833 499.5,260.167 499.5,270.5C 489.167,270.5 478.833,270.5 468.5,270.5C 468.192,260.085 468.525,249.751 469.5,239.5 Z"/></g>
<g><path style="opacity:1" fill="#51cd51" d="M 360.5,255.5 C 360.667,284.835 360.5,314.169 360,343.5C 327.351,364.866 312.517,395.199 315.5,434.5C 282.233,454.151 246.233,463.818 207.5,463.5C 207.5,436.833 207.5,410.167 207.5,383.5C 219.505,383.667 231.505,383.5 243.5,383C 265.324,377.528 274.157,363.695 270,341.5C 262.79,325.468 250.29,317.968 232.5,319C 219.61,315.61 211.61,307.444 208.5,294.5C 207.222,289.802 207.222,285.135 208.5,280.5C 211.574,267.592 219.574,259.425 232.5,256C 275.165,255.5 317.832,255.333 360.5,255.5 Z"/></g>
<g><path style="opacity:1" fill="#1f70ec" d="M 208.5,294.5 C 211.61,307.444 219.61,315.61 232.5,319C 250.29,317.968 262.79,325.468 270,341.5C 274.157,363.695 265.324,377.528 243.5,383C 231.505,383.5 219.505,383.667 207.5,383.5C 207.169,353.662 207.502,323.995 208.5,294.5 Z"/></g>
<g><path style="opacity:1" fill="#38385c" d="M 511.5,300.5 C 511.5,310.833 511.5,321.167 511.5,331.5C 497.167,331.5 482.833,331.5 468.5,331.5C 468.5,321.167 468.5,310.833 468.5,300.5C 482.833,300.5 497.167,300.5 511.5,300.5 Z"/></g>
<g><path style="opacity:1" fill="#cde63f" d="M 207.5,383.5 C 207.5,410.167 207.5,436.833 207.5,463.5C 185.441,463.969 164.108,460.636 143.5,453.5C 143.333,438.83 143.5,424.163 144,409.5C 147.392,396.441 155.559,387.941 168.5,384C 181.496,383.5 194.496,383.333 207.5,383.5 Z"/></g>
<g><path style="opacity:1" fill="#f99c31" d="M 391.5,406.5 C 396.167,406.5 400.833,406.5 405.5,406.5C 405.5,416.167 405.5,425.833 405.5,435.5C 400.833,435.5 396.167,435.5 391.5,435.5C 391.5,425.833 391.5,416.167 391.5,406.5 Z"/></g>
</svg>
