<?xml version="1.0" encoding="UTF-8"?>
<!DOCTYPE svg PUBLIC "-//W3C//DTD SVG 1.1//EN" "http://www.w3.org/Graphics/SVG/1.1/DTD/svg11.dtd">
<svg xmlns="http://www.w3.org/2000/svg" version="1.1" width="512px" height="512px" style="shape-rendering:geometricPrecision; text-rendering:geometricPrecision; image-rendering:optimizeQuality; fill-rule:evenodd; clip-rule:evenodd" xmlns:xlink="http://www.w3.org/1999/xlink">
<g><path style="opacity:1" fill="#010102" d="M -0.5,-0.5 C 170.167,-0.5 340.833,-0.5 511.5,-0.5C 511.5,74.8333 511.5,150.167 511.5,225.5C 509.167,225.5 506.833,225.5 504.5,225.5C 501.833,225.5 499.167,225.5 496.5,225.5C 496.5,207.833 496.5,190.167 496.5,172.5C 481.824,171.327 468.491,166.494 456.5,158C 441.859,143.691 427.525,129.025 413.5,114C 348.21,54.3936 272.21,34.0603 185.5,53C 130.26,73.9606 73.2596,83.1272 14.5,80.5C 14.3333,119.168 14.5,157.835 15,196.5C 19.8422,190.137 24.6755,183.803 29.5,177.5C 66.9727,136.43 110.639,103.597 160.5,79C 222.869,51.8939 284.535,53.5605 345.5,84C 415.982,123.889 455.149,184.389 463,265.5C 467.848,287.872 478.848,306.539 496,321.5C 496.5,294.502 496.667,267.502 496.5,240.5C 499.167,240.5 501.833,240.5 504.5,240.5C 506.833,240.5 509.167,240.5 511.5,240.5C 511.5,330.833 511.5,421.167 511.5,511.5C 340.833,511.5 170.167,511.5 -0.5,511.5C -0.5,340.833 -0.5,170.167 -0.5,-0.5 Z"/></g>
<g><path style="opacity:1" fill="#4a5c6f" d="M 30.5,14.5 C 30.5,19.8333 30.5,25.1667 30.5,30.5C 30.5,35.5 30.5,40.5 30.5,45.5C 30.5,46.5 30.5,47.5 30.5,48.5C 68.9034,49.9269 106.57,45.4269 143.5,35C 188.863,15.8141 235.863,10.4807 284.5,19C 361.566,31.8575 424.233,68.8575 472.5,130C 479.678,135.423 487.678,138.923 496.5,140.5C 496.5,146.167 496.5,151.833 496.5,157.5C 483.456,155.977 471.789,151.144 461.5,143C 443.799,122.299 424.466,103.299 403.5,86C 323.662,27.3086 237.329,15.6419 144.5,51C 101.986,62.9881 58.6532,67.4881 14.5,64.5C 14.5,47.8333 14.5,31.1667 14.5,14.5C 19.8333,14.5 25.1667,14.5 30.5,14.5 Z"/></g>
<g><path style="opacity:1" fill="#506f88" d="M 30.5,14.5 C 148.167,14.5 265.833,14.5 383.5,14.5C 387.143,37.9733 398.477,56.8067 417.5,71C 440.988,88.1073 467.321,96.9406 496.5,97.5C 496.5,111.833 496.5,126.167 496.5,140.5C 487.678,138.923 479.678,135.423 472.5,130C 424.233,68.8575 361.566,31.8575 284.5,19C 235.863,10.4807 188.863,15.8141 143.5,35C 106.57,45.4269 68.9034,49.9269 30.5,48.5C 30.5,47.5 30.5,46.5 30.5,45.5C 35.5,45.5 40.5,45.5 45.5,45.5C 45.5,40.5 45.5,35.5 45.5,30.5C 40.5,30.5 35.5,30.5 30.5,30.5C 30.5,25.1667 30.5,19.8333 30.5,14.5 Z"/></g>
<g><path style="opacity:1" fill="#1ec5b2" d="M 411.5,14.5 C 415.178,25.6945 421.511,35.1945 430.5,43C 449.365,59.5942 471.365,69.4276 496.5,72.5C 496.5,75.8333 496.5,79.1667 496.5,82.5C 461.572,81.9316 432.739,68.5983 410,42.5C 404.235,33.9685 400.402,24.6351 398.5,14.5C 402.833,14.5 407.167,14.5 411.5,14.5 Z"/></g>
<g><path style="opacity:1" fill="#19d9c0" d="M 411.5,14.5 C 439.833,14.5 468.167,14.5 496.5,14.5C 496.5,33.8333 496.5,53.1667 496.5,72.5C 471.365,69.4276 449.365,59.5942 430.5,43C 421.511,35.1945 415.178,25.6945 411.5,14.5 Z"/></g>
<g><path style="opacity:1" fill="#f9faf9" d="M 30.5,30.5 C 35.5,30.5 40.5,30.5 45.5,30.5C 45.5,35.5 45.5,40.5 45.5,45.5C 40.5,45.5 35.5,45.5 30.5,45.5C 30.5,40.5 30.5,35.5 30.5,30.5 Z"/></g>
<g><path style="opacity:1" fill="#f8f8f8" d="M 60.5,30.5 C 65.5,30.5 70.5,30.5 75.5,30.5C 75.5,35.5 75.5,40.5 75.5,45.5C 70.5,45.5 65.5,45.5 60.5,45.5C 60.5,40.5 60.5,35.5 60.5,30.5 Z"/></g>
<g><path style="opacity:1" fill="#8db3f0" d="M 504.5,225.5 C 504.5,230.5 504.5,235.5 504.5,240.5C 501.833,240.5 499.167,240.5 496.5,240.5C 496.667,267.502 496.5,294.502 496,321.5C 478.848,306.539 467.848,287.872 463,265.5C 455.149,184.389 415.982,123.889 345.5,84C 284.535,53.5605 222.869,51.8939 160.5,79C 110.639,103.597 66.9727,136.43 29.5,177.5C 29.5,145.167 29.5,112.833 29.5,80.5C 24.5,80.5 19.5,80.5 14.5,80.5C 73.2596,83.1272 130.26,73.9606 185.5,53C 272.21,34.0603 348.21,54.3936 413.5,114C 427.525,129.025 441.859,143.691 456.5,158C 468.491,166.494 481.824,171.327 496.5,172.5C 496.5,190.167 496.5,207.833 496.5,225.5C 499.167,225.5 501.833,225.5 504.5,225.5 Z"/></g>
<g><path style="opacity:1" fill="#8cb2ef" d="M 308.5,482.5 C 298.833,482.5 289.167,482.5 279.5,482.5C 307.238,466.009 332.405,446.009 355,422.5C 385.279,453.164 418.446,456.664 454.5,433C 483.171,405.305 487.671,374.139 468,339.5C 462.333,333.167 456.667,326.833 451,320.5C 435.331,299.162 426.997,275.162 426,248.5C 412.833,185.614 377.667,139.781 320.5,111C 276.36,91.7465 231.36,89.4132 185.5,104C 127.709,128.969 79.3753,166.136 40.5,215.5C 39.9569,215.44 39.6236,215.107 39.5,214.5C 49.0606,193.699 60.3939,174.033 73.5,155.5C 111.013,120.56 154.346,95.0599 203.5,79C 288.601,64.7999 357.434,91.6332 410,159.5C 432.919,192.919 445.919,229.919 449,270.5C 452.492,285.325 458.492,298.992 467,311.5C 473.294,319.462 479.96,327.129 487,334.5C 490.507,339.51 493.507,344.843 496,350.5C 496.667,368.833 496.667,387.167 496,405.5C 471.569,456.297 432.069,474.464 377.5,460C 369.218,456.282 361.718,451.449 355,445.5C 344.845,454.32 334.678,463.153 324.5,472C 319.281,475.769 313.947,479.269 308.5,482.5 Z"/></g>
<g><path style="opacity:1" fill="#568eec" d="M 14.5,80.5 C 19.5,80.5 24.5,80.5 29.5,80.5C 29.5,112.833 29.5,145.167 29.5,177.5C 24.6755,183.803 19.8422,190.137 15,196.5C 14.5,157.835 14.3333,119.168 14.5,80.5 Z"/></g>
<g><path style="opacity:1" fill="#18d7be" d="M 256.5,476.5 C 198.566,494.723 144.9,486.556 95.5,452C 43.331,411.468 19.4977,357.968 24,291.5C 25.9811,281.764 27.8145,272.097 29.5,262.5C 45.9776,230.169 67.9776,202.002 95.5,178C 120.052,156.47 147.052,138.47 176.5,124C 205.753,110.118 236.42,105.785 268.5,111C 328.745,122.356 372.245,155.522 399,210.5C 408.106,232.259 413.439,254.925 415,278.5C 421.005,304.465 433.671,326.465 453,344.5C 468.506,365.437 469.506,387.104 456,409.5C 440.884,429.129 421.051,436.629 396.5,432C 390.933,430.217 385.599,427.883 380.5,425C 371.385,417.721 362.719,409.888 354.5,401.5C 326.531,432.798 293.865,457.798 256.5,476.5 Z"/></g>
<g><path style="opacity:1" fill="#010403" d="M 227.5,126.5 C 286.433,124.719 333.266,147.386 368,194.5C 395.454,235.585 401.454,279.585 386,326.5C 358.148,381.686 317.314,424.52 263.5,455C 199.8,486.182 140.8,479.182 86.5,434C 39.4858,387.443 25.9858,332.61 46,269.5C 60.7231,237.434 81.5565,209.934 108.5,187C 136.605,162.442 168.272,143.775 203.5,131C 211.602,129.278 219.602,127.778 227.5,126.5 Z"/></g>
<g><path style="opacity:1" fill="#18d6be" d="M 259.5,439.5 C 248.767,442.349 238.1,445.182 227.5,448C 202.378,450.839 178.045,447.839 154.5,439C 153.672,438.085 152.672,437.419 151.5,437C 152.094,436.536 152.761,436.369 153.5,436.5C 192.274,447.556 228.607,442.056 262.5,420C 294.851,398.318 321.017,370.818 341,337.5C 360.657,295.084 356.991,254.75 330,216.5C 294.351,173.284 249.184,158.451 194.5,172C 152.383,189.446 117.883,216.612 91,253.5C 67.015,289.27 62.8483,327.27 78.5,367.5C 78.631,368.239 78.4643,368.906 78,369.5C 59.7612,333.699 56.5946,296.699 68.5,258.5C 82.9528,233.202 101.619,211.369 124.5,193C 148.845,172.986 175.845,157.32 205.5,146C 271.14,133.203 322.64,154.37 360,209.5C 379.274,242.083 384.274,276.749 375,313.5C 364.015,339.485 349.015,362.818 330,383.5C 309.485,406.21 285.985,424.877 259.5,439.5 Z"/></g>
<g><path style="opacity:1" fill="#568ce8" d="M 73.5,155.5 C 60.3939,174.033 49.0606,193.699 39.5,214.5C 39.6236,215.107 39.9569,215.44 40.5,215.5C 30.637,228.561 22.137,242.561 15,257.5C 14.0409,245.071 14.3743,232.737 16,220.5C 32.116,196.212 51.2827,174.546 73.5,155.5 Z"/></g>
<g><path style="opacity:1" fill="#020302" d="M 153.5,436.5 C 119.227,423.56 94.2273,400.56 78.5,367.5C 62.8483,327.27 67.015,289.27 91,253.5C 117.883,216.612 152.383,189.446 194.5,172C 249.184,158.451 294.351,173.284 330,216.5C 356.991,254.75 360.657,295.084 341,337.5C 321.017,370.818 294.851,398.318 262.5,420C 228.607,442.056 192.274,447.556 153.5,436.5 Z"/></g>
<g><path style="opacity:1" fill="#f6e455" d="M 252.5,408.5 C 252.265,407.903 251.765,407.57 251,407.5C 217.777,419.941 185.61,417.608 154.5,400.5C 153.702,400.043 153.369,399.376 153.5,398.5C 187.905,413.993 220.571,410.826 251.5,389C 270.784,373.711 285.618,354.877 296,332.5C 309.777,285.825 296.277,249.325 255.5,223C 221.832,206.152 189.165,207.819 157.5,228C 134.028,243.472 117.195,264.305 107,290.5C 101.292,312.686 102.792,334.353 111.5,355.5C 110.624,355.631 109.957,355.298 109.5,354.5C 94.9707,324.777 92.6373,294.443 102.5,263.5C 128.83,226.16 163.497,199.66 206.5,184C 256.796,175.238 295.963,192.071 324,234.5C 344.001,270.357 343.335,305.691 322,340.5C 303.247,367.754 280.081,390.42 252.5,408.5 Z"/></g>
<g><path style="opacity:1" fill="#050301" d="M 153.5,398.5 C 134.751,388.751 120.751,374.418 111.5,355.5C 102.792,334.353 101.292,312.686 107,290.5C 117.195,264.305 134.028,243.472 157.5,228C 189.165,207.819 221.832,206.152 255.5,223C 296.277,249.325 309.777,285.825 296,332.5C 285.618,354.877 270.784,373.711 251.5,389C 220.571,410.826 187.905,413.993 153.5,398.5 Z"/></g>
<g><path style="opacity:1" fill="#f7a63d" d="M 237.5,379.5 C 213.258,386.986 190.258,384.32 168.5,371.5C 167.702,371.043 167.369,370.376 167.5,369.5C 196.82,381.536 222.653,376.202 245,353.5C 253.594,344.314 259.594,333.647 263,321.5C 265.687,304.521 258.52,297.021 241.5,299C 233.954,301.738 226.287,304.071 218.5,306C 208.333,309.167 204.833,305.667 208,295.5C 211.726,286.99 215.059,278.323 218,269.5C 219.291,257.954 214.125,251.121 202.5,249C 197.096,248.228 191.762,248.561 186.5,250C 159.586,260.906 142.753,280.406 136,308.5C 134.924,320.622 136.758,332.289 141.5,343.5C 131.992,329.765 127.658,314.432 128.5,297.5C 128.207,289.971 129.207,282.637 131.5,275.5C 134.488,270.208 137.988,265.208 142,260.5C 155.405,246.883 170.905,236.383 188.5,229C 234.405,220.267 266.239,237.434 284,280.5C 287.832,296.374 287.165,312.041 282,327.5C 272.316,349.342 257.483,366.676 237.5,379.5 Z"/></g>
<g><path style="opacity:1" fill="#050200" d="M 167.5,369.5 C 156.472,363.139 147.806,354.472 141.5,343.5C 136.758,332.289 134.924,320.622 136,308.5C 142.753,280.406 159.586,260.906 186.5,250C 191.762,248.561 197.096,248.228 202.5,249C 214.125,251.121 219.291,257.954 218,269.5C 215.059,278.323 211.726,286.99 208,295.5C 204.833,305.667 208.333,309.167 218.5,306C 226.287,304.071 233.954,301.738 241.5,299C 258.52,297.021 265.687,304.521 263,321.5C 259.594,333.647 253.594,344.314 245,353.5C 222.653,376.202 196.82,381.536 167.5,369.5 Z"/></g>
<g><path style="opacity:1" fill="#1ec4b2" d="M 68.5,258.5 C 56.5946,296.699 59.7612,333.699 78,369.5C 78.4643,368.906 78.631,368.239 78.5,367.5C 94.2273,400.56 119.227,423.56 153.5,436.5C 152.761,436.369 152.094,436.536 151.5,437C 152.672,437.419 153.672,438.085 154.5,439C 178.045,447.839 202.378,450.839 227.5,448C 238.1,445.182 248.767,442.349 259.5,439.5C 200.934,470.686 146.268,464.853 95.5,422C 54.8849,381.04 42.7183,332.873 59,277.5C 61.6698,270.827 64.8365,264.494 68.5,258.5 Z"/></g>
<g><path style="opacity:1" fill="#f7633d" d="M 222.5,352.5 C 194.113,355.972 173.946,344.639 162,318.5C 159.729,309.328 158.895,299.994 159.5,290.5C 166.478,279.026 176.145,270.526 188.5,265C 192.428,263.675 196.428,263.342 200.5,264C 202.363,265.418 202.863,267.251 202,269.5C 199,278.167 196,286.833 193,295.5C 190.966,315.131 199.799,323.631 219.5,321C 229.06,317.978 238.726,315.478 248.5,313.5C 246.098,330.628 237.431,343.628 222.5,352.5 Z"/></g>
<g><path style="opacity:1" fill="#1ec5b2" d="M 29.5,262.5 C 27.8145,272.097 25.9811,281.764 24,291.5C 19.4977,357.968 43.331,411.468 95.5,452C 144.9,486.556 198.566,494.723 256.5,476.5C 201.325,502.64 147.325,500.14 94.5,469C 31.3818,425.354 6.21513,365.52 19,289.5C 21.6454,280.046 25.1454,271.046 29.5,262.5 Z"/></g>
<g><path style="opacity:1" fill="#efd103" d="M 102.5,263.5 C 92.6373,294.443 94.9707,324.777 109.5,354.5C 109.957,355.298 110.624,355.631 111.5,355.5C 120.751,374.418 134.751,388.751 153.5,398.5C 153.369,399.376 153.702,400.043 154.5,400.5C 185.61,417.608 217.777,419.941 251,407.5C 251.765,407.57 252.265,407.903 252.5,408.5C 198.756,439.403 150.589,432.403 108,387.5C 83.558,355.406 78.2247,320.406 92,282.5C 95.0048,275.818 98.5048,269.484 102.5,263.5 Z"/></g>
<g><path style="opacity:1" fill="#ee8d01" d="M 131.5,275.5 C 129.207,282.637 128.207,289.971 128.5,297.5C 127.658,314.432 131.992,329.765 141.5,343.5C 147.806,354.472 156.472,363.139 167.5,369.5C 167.369,370.376 167.702,371.043 168.5,371.5C 190.258,384.32 213.258,386.986 237.5,379.5C 214.347,395.243 189.681,397.743 163.5,387C 128.392,368.283 113.892,339.116 120,299.5C 122.005,290.494 125.838,282.494 131.5,275.5 Z"/></g>
<g><path style="opacity:1" fill="#f53201" d="M 159.5,290.5 C 158.895,299.994 159.729,309.328 162,318.5C 173.946,344.639 194.113,355.972 222.5,352.5C 197.785,367.534 176.285,363.867 158,341.5C 147.497,323.967 147.997,306.967 159.5,290.5 Z"/></g>
<g><path style="opacity:1" fill="#558ce8" d="M 14.5,398.5 C 35.5419,444.041 69.2086,476.541 115.5,496C 103.167,496.667 90.8333,496.667 78.5,496C 52.3803,480.214 31.2136,459.38 15,433.5C 14.5001,421.838 14.3335,410.171 14.5,398.5 Z"/></g>
<g><path style="opacity:1" fill="#8db2f0" d="M 496.5,481.5 C 443.5,481.5 390.5,481.5 337.5,481.5C 343.19,475.645 349.357,470.311 356,465.5C 376.319,478.374 398.486,483.208 422.5,480C 453.929,475.876 478.429,460.709 496,434.5C 496.5,450.163 496.667,465.83 496.5,481.5 Z"/></g>
<g><path style="opacity:1" fill="#568dea" d="M 14.5,459.5 C 25.6747,473.174 38.3413,485.34 52.5,496C 39.8377,496.5 27.1711,496.667 14.5,496.5C 14.5,484.167 14.5,471.833 14.5,459.5 Z"/></g>
<g><path style="opacity:1" fill="#568eec" d="M 337.5,481.5 C 390.5,481.5 443.5,481.5 496.5,481.5C 496.5,486.5 496.5,491.5 496.5,496.5C 436.499,496.667 376.499,496.5 316.5,496C 323.558,491.147 330.558,486.314 337.5,481.5 Z"/></g>
<g><path style="opacity:1" fill="#568ce9" d="M 279.5,482.5 C 289.167,482.5 298.833,482.5 308.5,482.5C 301.905,487.474 294.905,491.974 287.5,496C 275.167,496.667 262.833,496.667 250.5,496C 260.46,492.019 270.126,487.519 279.5,482.5 Z"/></g>
</svg>
