<?xml version="1.0" encoding="UTF-8"?>
<svg xmlns="http://www.w3.org/2000/svg" version="1.1" viewBox="0 0 1000 1000">
  <!-- Generator: Adobe Illustrator 30.0.0, SVG Export Plug-In . SVG Version: 2.1.1 Build 123)  -->
  <defs>
    <style>
      .st0, .st1 {
        fill: #fff;
      }

      .st1 {
        fill-rule: evenodd;
      }

      .st2 {
        fill: none;
      }
    </style>
  </defs>
  <g id="Camada_1">
    <rect class="st2" width="1000" height="1000"/>
  </g>
  <g id="Camada_2">
    <g>
      <path id="path10" class="st1" d="M209.18,431.58h-96.69v100.08h-50.38v-244.52h159.17v40.92h-108.79v62.93h96.69v40.58ZM360.15,481.45h-88.33l-16.79,50.21h-53.53l90.96-244.52h46.71l91.54,244.52h-53.59l-16.97-50.21ZM285.41,440.53h61.16l-30.72-91.59-30.44,91.59ZM547.8,442.24h-40.12v89.42h-50.38v-244.52h90.85c28.89,0,51.18,6.42,66.83,19.32,15.7,12.9,23.5,31.07,23.5,54.62,0,16.68-3.61,30.61-10.83,41.73-7.22,11.18-18.11,20.06-32.79,26.65l52.9,99.85v2.35h-54.11l-45.85-89.42ZM507.68,401.32h40.64c12.67,0,22.47-3.21,29.4-9.63,6.94-6.42,10.43-15.3,10.43-26.6s-3.32-20.52-9.86-27.11c-6.53-6.59-16.57-9.92-30.15-9.92h-40.47v73.25ZM746.45,287.14l62.82,177.34,62.48-177.34h66.14v244.52h-50.55v-66.83l5.04-115.38-65.97,182.21h-34.62l-65.8-182.04,5.04,115.21v66.83h-50.38v-244.52h65.8Z"/>
      <g>
        <path class="st0" d="M678.37,677.56c6.21,4.69,14.04,9.66,20.14,12.12,6.11,2.46,12.2,3.81,18.28,4.06,9.08.36,15.95-.67,20.6-3.09,4.64-2.42,7.07-6.22,7.28-11.42.16-4.02-1.25-6.92-4.22-8.7-2.97-1.78-6.91-3.03-11.81-3.75-4.9-.71-10.16-1.36-15.77-1.93-4.72-.53-9.39-1.26-14.01-2.17-4.63-.91-8.82-2.4-12.57-4.45-3.75-2.06-6.7-5-8.84-8.83s-3.09-8.9-2.84-15.2c.45-11.43,4.59-19.84,12.39-25.22,7.81-5.38,19.22-7.77,34.24-7.18,9.16.36,17.64,1.84,25.43,4.44,6.89,2.3,13.35,5.52,19.4,9.68l-12.1,16.63c-5.72-3.7-11.38-6.52-16.98-8.48-5.6-1.96-11.1-3.04-16.51-3.26-7.81-.31-13.72.69-17.72,2.99-4,2.3-6.1,5.92-6.3,10.83-.13,3.26,1.13,5.65,3.78,7.18,2.65,1.53,6.18,2.59,10.59,3.18,4.41.59,9.17,1.16,14.26,1.71,4.87.47,9.79,1.17,14.75,2.09,4.96.93,9.51,2.51,13.63,4.76,4.12,2.25,7.38,5.46,9.77,9.65,2.39,4.19,3.45,9.82,3.16,16.88-.46,11.57-4.88,20.07-13.25,25.49-8.38,5.43-20.75,7.82-37.11,7.17-10.36-.41-19.71-2.19-28.05-5.33-7.66-2.89-16.21-8.33-22.28-13.53l12.66-16.34Z"/>
        <path class="st0" d="M539.02,603.41c17.09,0,30.73,4.69,40.93,14.07,10.2,9.38,15.3,22.65,15.3,39.8s-5.1,30.33-15.3,39.75c-10.2,9.42-23.85,14.12-40.93,14.12s-30.62-4.71-40.82-14.12c-10.2-9.42-15.3-22.67-15.3-39.75s5.1-30.41,15.3-39.8c10.2-9.38,23.8-14.07,40.82-14.07ZM538.72,691.77c9.53,0,17.25-2.93,23.18-8.79,5.93-5.86,8.89-14.56,8.89-26.11s-2.96-20.34-8.89-26.2c-5.93-5.86-13.66-8.79-23.18-8.79s-17.25,2.93-23.18,8.79c-5.93,5.86-8.89,14.59-8.89,26.2s2.96,20.26,8.89,26.11c5.93,5.86,13.66,8.79,23.18,8.79Z"/>
        <path class="st0" d="M410.8,603.41c17.09,0,30.73,4.69,40.93,14.07,10.2,9.38,15.3,22.65,15.3,39.8s-5.1,30.33-15.3,39.75c-10.2,9.42-23.85,14.12-40.93,14.12s-30.62-4.71-40.82-14.12c-10.2-9.42-15.3-22.67-15.3-39.75s5.1-30.41,15.3-39.8c10.2-9.38,23.8-14.07,40.82-14.07ZM410.5,691.77c9.53,0,17.25-2.93,23.18-8.79,5.93-5.86,8.89-14.56,8.89-26.11s-2.96-20.34-8.89-26.2c-5.93-5.86-13.66-8.79-23.18-8.79s-17.25,2.93-23.18,8.79c-5.93,5.86-8.89,14.59-8.89,26.2s2.96,20.26,8.89,26.11c5.93,5.86,13.66,8.79,23.18,8.79Z"/>
        <path class="st0" d="M644.99,711.23h-24.49v-152.6h24.49v152.6Z"/>
        <path class="st0" d="M338.21,686.51l-3.45,1.43c-.08.03-7.67,3.15-14.85,3.28-5.78.1-12.17-.29-15.8-4.03-1.89-1.94-1.76-6.73-1.66-10.22.02-.77.04-1.5.04-2.16v-52.42h33.79v-21.05h-33.79v-31.04l-24.25,4.16v26.88h-21.99v21.05h21.99v55.81c0,22.63,10.89,34.6,31.49,34.6,6.29,0,23.37-1.1,28.34-3.81l1.48-.81-1.33-21.68Z"/>
      </g>
    </g>
  </g>
</svg>