<?xml version="1.0" encoding="UTF-8"?>
<!DOCTYPE svg PUBLIC "-//W3C//DTD SVG 1.1//EN" "http://www.w3.org/Graphics/SVG/1.1/DTD/svg11.dtd">
<svg xmlns="http://www.w3.org/2000/svg" version="1.1" width="5145px" height="1607px" style="shape-rendering:geometricPrecision; text-rendering:geometricPrecision; image-rendering:optimizeQuality; fill-rule:evenodd; clip-rule:evenodd" xmlns:xlink="http://www.w3.org/1999/xlink">
<g><path style="opacity:1" fill="#4b4b4b" d="M 4681.5,-0.5 C 4681.83,-0.5 4682.17,-0.5 4682.5,-0.5C 4725.82,123.805 4769.16,248.138 4812.5,372.5C 4746.02,395.216 4679.35,417.549 4612.5,439.5C 4611.35,439.182 4610.52,438.516 4610,437.5C 4603.39,417.847 4596.89,398.18 4590.5,378.5C 4589.93,374.463 4588.6,370.797 4586.5,367.5C 4583.17,357.833 4579.83,348.167 4576.5,338.5C 4575.98,334.467 4574.64,330.8 4572.5,327.5C 4568.3,314.905 4564.3,302.239 4560.5,289.5C 4557.91,229.291 4560.41,169.291 4568,109.5C 4571.51,81.4449 4575.34,53.4449 4579.5,25.5C 4613.62,16.9474 4647.62,8.28076 4681.5,-0.5 Z"/></g>
<g><path style="opacity:1" fill="#565656" d="M 4579.5,25.5 C 4575.34,53.4449 4571.51,81.4449 4568,109.5C 4560.41,169.291 4557.91,229.291 4560.5,289.5C 4548.26,255.452 4536.59,221.119 4525.5,186.5C 4524.17,182.833 4522.83,179.167 4521.5,175.5C 4517.64,164.579 4513.97,153.579 4510.5,142.5C 4509.54,138.605 4508.2,134.939 4506.5,131.5C 4497.1,104.29 4488.1,76.9562 4479.5,49.5C 4512.83,41.5 4546.17,33.5 4579.5,25.5 Z"/></g>
<g><path style="opacity:1" fill="#4b4b4b" d="M 4493.5,134.5 C 4494.46,138.395 4495.8,142.061 4497.5,145.5C 4501.37,156.438 4505.03,167.438 4508.5,178.5C 4509.46,182.395 4510.8,186.061 4512.5,189.5C 4529.03,236.42 4545.36,283.42 4561.5,330.5C 4562.07,334.537 4563.4,338.203 4565.5,341.5C 4568.83,351.172 4572.17,360.838 4575.5,370.5C 4576.46,374.383 4577.79,378.05 4579.5,381.5C 4586.23,401.514 4593.06,421.514 4600,441.5C 4600.78,442.944 4600.61,444.277 4599.5,445.5C 4527.66,468.779 4455.66,491.446 4383.5,513.5C 4376.7,491.761 4369.7,470.094 4362.5,448.5C 4361.4,443.856 4359.73,439.522 4357.5,435.5C 4355.17,428.167 4352.83,420.833 4350.5,413.5C 4352,402.54 4352.67,391.373 4352.5,380C 4348.96,310.211 4352.13,240.711 4362,171.5C 4366.3,139.008 4371.47,106.674 4377.5,74.5C 4406.7,67.2411 4435.87,59.9077 4465,52.5C 4474.61,79.8192 4484.11,107.153 4493.5,134.5 Z"/></g>
<g><path style="opacity:1" fill="#565656" d="M 4377.5,74.5 C 4371.47,106.674 4366.3,139.008 4362,171.5C 4352.13,240.711 4348.96,310.211 4352.5,380C 4352.67,391.373 4352,402.54 4350.5,413.5C 4349.5,410.833 4348.5,408.167 4347.5,405.5C 4346.8,400.71 4345.13,396.377 4342.5,392.5C 4326.87,344.623 4310.87,296.956 4294.5,249.5C 4293.57,245.031 4292.23,240.697 4290.5,236.5C 4286.83,225.833 4283.17,215.167 4279.5,204.5C 4278.57,200.031 4277.23,195.697 4275.5,191.5C 4265.74,163.382 4256.07,135.216 4246.5,107C 4290.15,96.0047 4333.81,85.1714 4377.5,74.5 Z"/></g>
<g><path style="opacity:1" fill="#4b4b4b" d="M 4264.5,194.5 C 4265.43,198.969 4266.77,203.303 4268.5,207.5C 4272.17,218.162 4275.83,228.828 4279.5,239.5C 4280.21,244.324 4281.88,248.657 4284.5,252.5C 4300.1,300.308 4316.1,347.974 4332.5,395.5C 4333.76,399.441 4334.92,403.441 4336,407.5C 4336.38,408.056 4336.88,408.389 4337.5,408.5C 4340.5,418.5 4343.5,428.5 4346.5,438.5C 4347.99,442.987 4349.66,447.32 4351.5,451.5C 4359.23,473.698 4366.57,496.032 4373.5,518.5C 4296.5,542.666 4219.67,567.332 4143,592.5C 4135.81,573.424 4129.31,554.09 4123.5,534.5C 4129.28,512.568 4132.78,490.235 4134,467.5C 4129.88,380.354 4134.55,293.687 4148,207.5C 4151.86,181.035 4156.36,154.702 4161.5,128.5C 4186.22,121.739 4211.22,115.739 4236.5,110.5C 4245.24,138.714 4254.57,166.714 4264.5,194.5 Z"/></g>
<g><path style="opacity:1" fill="#565656" d="M 4161.5,128.5 C 4156.36,154.702 4151.86,181.035 4148,207.5C 4134.55,293.687 4129.88,380.354 4134,467.5C 4132.78,490.235 4129.28,512.568 4123.5,534.5C 4121.59,530.784 4120.26,526.784 4119.5,522.5C 4117.83,517.828 4116.17,513.162 4114.5,508.5C 4110.83,497.833 4107.17,487.167 4103.5,476.5C 4102.43,471.285 4100.76,466.285 4098.5,461.5C 4082.34,413.018 4066.01,364.685 4049.5,316.5C 4048.81,311.085 4047.14,306.085 4044.5,301.5C 4041.56,291.028 4038.23,280.695 4034.5,270.5C 4033.6,265.466 4031.94,260.799 4029.5,256.5C 4019.94,227.332 4010.28,198.165 4000.5,169C 4000.64,168.228 4000.98,167.561 4001.5,167C 4054.78,153.848 4108.11,141.014 4161.5,128.5 Z"/></g>
<g><path style="opacity:1" fill="#7c7c7c" d="M 4506.5,131.5 C 4508.2,134.939 4509.54,138.605 4510.5,142.5C 4506.21,143.657 4501.87,144.657 4497.5,145.5C 4495.8,142.061 4494.46,138.395 4493.5,134.5C 4497.79,133.293 4502.12,132.293 4506.5,131.5 Z"/></g>
<g><path style="opacity:1" fill="#373837" d="M 5144.5,165.5 C 5144.5,166.167 5144.5,166.833 5144.5,167.5C 5137.88,168.194 5137.88,167.527 5144.5,165.5 Z"/></g>
<g><path style="opacity:1" fill="#4b4b4b" d="M 4019.5,258.5 C 4020.93,263.67 4022.6,268.67 4024.5,273.5C 4028.23,283.695 4031.56,294.028 4034.5,304.5C 4036.13,309.73 4038.13,314.73 4040.5,319.5C 4056.26,368.118 4072.59,416.452 4089.5,464.5C 4090.36,469.854 4092.02,474.854 4094.5,479.5C 4097.83,489.833 4101.17,500.167 4104.5,510.5C 4105.97,515.579 4107.64,520.579 4109.5,525.5C 4118.24,549.049 4125.91,572.716 4132.5,596.5C 4059.8,618.173 3987.14,639.839 3914.5,661.5C 3931.57,616.962 3940.24,570.795 3940.5,523C 3937.31,471.102 3938.14,419.268 3943,367.5C 3949.62,303.18 3958.78,239.513 3970.5,176.5C 3976.91,174.232 3983.57,172.565 3990.5,171.5C 3999.97,200.567 4009.63,229.567 4019.5,258.5 Z"/></g>
<g><path style="opacity:1" fill="#7c7c7c" d="M 4521.5,175.5 C 4522.83,179.167 4524.17,182.833 4525.5,186.5C 4521.21,187.657 4516.87,188.657 4512.5,189.5C 4510.8,186.061 4509.46,182.395 4508.5,178.5C 4512.79,177.293 4517.12,176.293 4521.5,175.5 Z"/></g>
<g><path style="opacity:1" fill="#565656" d="M 3970.5,176.5 C 3958.78,239.513 3949.62,303.18 3943,367.5C 3938.14,419.268 3937.31,471.102 3940.5,523C 3940.24,570.795 3931.57,616.962 3914.5,661.5C 3904.12,664.293 3893.79,667.293 3883.5,670.5C 3882.91,670.291 3882.41,669.957 3882,669.5C 3874.59,647.101 3867.09,624.768 3859.5,602.5C 3858.27,596.468 3856.27,590.801 3853.5,585.5C 3850.41,574.216 3846.74,563.216 3842.5,552.5C 3841.44,546.647 3839.77,540.98 3837.5,535.5C 3820.77,486.307 3804.44,436.974 3788.5,387.5C 3786.68,382.019 3784.68,376.686 3782.5,371.5C 3779.36,361.421 3776.03,351.421 3772.5,341.5C 3771.27,335.468 3769.27,329.801 3766.5,324.5C 3757.14,294.925 3747.48,265.425 3737.5,236C 3737.83,235.5 3738.17,235 3738.5,234.5C 3815.77,214.85 3893.1,195.516 3970.5,176.5 Z"/></g>
<g><path style="opacity:1" fill="#7c7c7c" d="M 4275.5,191.5 C 4277.23,195.697 4278.57,200.031 4279.5,204.5C 4275.88,205.656 4272.21,206.656 4268.5,207.5C 4266.77,203.303 4265.43,198.969 4264.5,194.5C 4268.12,193.344 4271.79,192.344 4275.5,191.5 Z"/></g>
<g><path style="opacity:1" fill="#575756" d="M 2692.5,288.5 C 2691.29,287.766 2689.96,287.433 2688.5,287.5C 2685.61,287.806 2682.95,287.473 2680.5,286.5C 2680.3,283.482 2679.96,280.482 2679.5,277.5C 2674.11,276.75 2673.44,274.75 2677.5,271.5C 2677.83,269.667 2678.17,267.833 2678.5,266C 2676.96,249.64 2675.3,233.307 2673.5,217C 2674.87,213.621 2677.2,212.788 2680.5,214.5C 2684.1,232.739 2687.26,251.073 2690,269.5C 2691.07,270.191 2692.23,270.691 2693.5,271C 2694.06,271.725 2694.39,272.558 2694.5,273.5C 2692.64,275.04 2691.64,277.04 2691.5,279.5C 2692.16,282.468 2692.49,285.468 2692.5,288.5 Z"/></g>
<g><path style="opacity:1" fill="#f9b42b" d="M 3068.5,297.5 C 3068.49,299.017 3067.82,300.184 3066.5,301C 3064.5,302 3062.5,303 3060.5,304C 3029.88,310.47 2998.88,314.137 2967.5,315C 2930.49,315.786 2893.49,315.452 2856.5,314C 2840.97,312.966 2825.63,310.633 2810.5,307C 2806.87,306.21 2804.87,304.043 2804.5,300.5C 2805.34,298.827 2806.68,297.66 2808.5,297C 2820.7,293.493 2833.03,290.493 2845.5,288C 2854.27,285.636 2862.6,282.303 2870.5,278C 2874,275.833 2876.83,273 2879,269.5C 2882.82,259.896 2886.48,250.23 2890,240.5C 2902.2,219.992 2920.03,212.492 2943.5,218C 2953.28,221.12 2961.45,226.62 2968,234.5C 2971.53,241.414 2974.86,248.414 2978,255.5C 2982.24,260.415 2987.08,264.581 2992.5,268C 3015.58,280.028 3039.91,288.695 3065.5,294C 3067.06,294.759 3068.06,295.926 3068.5,297.5 Z"/></g>
<g><path style="opacity:1" fill="#7c7c7c" d="M 4290.5,236.5 C 4292.23,240.697 4293.57,245.031 4294.5,249.5C 4291.06,250.193 4287.73,251.193 4284.5,252.5C 4281.88,248.657 4280.21,244.324 4279.5,239.5C 4283.11,238.348 4286.77,237.348 4290.5,236.5 Z"/></g>
<g><path style="opacity:1" fill="#565656" d="M 3726.5,243.5 C 3708.87,326.17 3697.71,409.836 3693,494.5C 3692.43,527.502 3692.6,560.502 3693.5,593.5C 3694.58,644.376 3684.91,693.043 3664.5,739.5C 3645.38,746.263 3626.05,752.097 3606.5,757C 3598.59,733.784 3590.59,710.618 3582.5,687.5C 3580.9,681.029 3578.9,674.696 3576.5,668.5C 3572.5,656.833 3568.5,645.167 3564.5,633.5C 3562.9,627.029 3560.9,620.696 3558.5,614.5C 3541.5,564.5 3524.5,514.5 3507.5,464.5C 3505.9,458.029 3503.9,451.696 3501.5,445.5C 3498.17,435.833 3494.83,426.167 3491.5,416.5C 3490.07,410.216 3488.07,404.216 3485.5,398.5C 3474.77,367.302 3464.43,335.969 3454.5,304.5C 3544.04,282.406 3633.54,260.072 3723,237.5C 3724.81,239.099 3725.98,241.099 3726.5,243.5 Z"/></g>
<g><path style="opacity:1" fill="#c9c6c0" d="M 2905.5,239.5 C 2923.54,240.716 2931.71,250.382 2930,268.5C 2926.93,281.583 2918.76,287.75 2905.5,287C 2891.56,281.623 2886.06,271.456 2889,256.5C 2891.35,247.652 2896.85,241.986 2905.5,239.5 Z"/></g>
<g><path style="opacity:1" fill="#4b4b4b" d="M 3726.5,243.5 C 3736.03,271.426 3745.36,299.426 3754.5,327.5C 3756.53,333.252 3758.53,338.919 3760.5,344.5C 3764.03,354.421 3767.36,364.421 3770.5,374.5C 3771.99,380.12 3773.99,385.453 3776.5,390.5C 3792.97,439.908 3809.64,489.241 3826.5,538.5C 3828.06,544.428 3830.06,550.095 3832.5,555.5C 3835.97,566.579 3839.64,577.579 3843.5,588.5C 3845.06,594.428 3847.06,600.095 3849.5,605.5C 3857.15,628.146 3864.82,650.812 3872.5,673.5C 3803.39,696.091 3734.06,718.091 3664.5,739.5C 3684.91,693.043 3694.58,644.376 3693.5,593.5C 3692.6,560.502 3692.43,527.502 3693,494.5C 3697.71,409.836 3708.87,326.17 3726.5,243.5 Z"/></g>
<g><path style="opacity:1" fill="#d9d9d9" d="M 2914.5,244.5 C 2929.08,250.919 2932.58,261.253 2925,275.5C 2922.38,279.221 2918.88,281.554 2914.5,282.5C 2902,282.335 2895.33,276.002 2894.5,263.5C 2895.34,250.989 2902.01,244.655 2914.5,244.5 Z"/></g>
<g><path style="opacity:1" fill="#898989" d="M 2914.5,244.5 C 2902.01,244.655 2895.34,250.989 2894.5,263.5C 2895.33,276.002 2902,282.335 2914.5,282.5C 2900.35,284.538 2892.68,278.204 2891.5,263.5C 2892.64,248.81 2900.3,242.477 2914.5,244.5 Z"/></g>
<g><path style="opacity:1" fill="#7c7c7c" d="M 4029.5,256.5 C 4031.94,260.799 4033.6,265.466 4034.5,270.5C 4031.15,271.503 4027.82,272.503 4024.5,273.5C 4022.6,268.67 4020.93,263.67 4019.5,258.5C 4022.76,257.518 4026.1,256.851 4029.5,256.5 Z"/></g>
<g><path style="opacity:1" fill="#8f4b00" d="M 2680.5,286.5 C 2682.95,287.473 2685.61,287.806 2688.5,287.5C 2690.37,306.564 2692.71,325.564 2695.5,344.5C 2696.83,345.167 2698.17,345.833 2699.5,346.5C 2700.17,339.833 2700.83,333.167 2701.5,326.5C 2766.76,343.149 2832.1,359.483 2897.5,375.5C 2898.16,392.928 2898.49,410.428 2898.5,428C 2897.76,504.833 2897.09,581.667 2896.5,658.5C 2895.17,661.167 2895.17,663.833 2896.5,666.5C 2894.83,830.497 2893.5,994.497 2892.5,1158.5C 2881.92,1155.87 2873.75,1159.21 2868,1168.5C 2861.26,1178.48 2858.76,1189.48 2860.5,1201.5C 2855.66,1198.58 2850.66,1195.91 2845.5,1193.5C 2846.21,1192.6 2847.21,1192.26 2848.5,1192.5C 2849.78,1181.53 2850.78,1170.53 2851.5,1159.5C 2801.09,1139.36 2750.75,1119.03 2700.5,1098.5C 2700.5,1095.83 2700.5,1093.17 2700.5,1090.5C 2741.62,1106.1 2782.62,1122.1 2823.5,1138.5C 2824.17,1140.5 2824.83,1142.5 2825.5,1144.5C 2829.41,1145.92 2833.41,1146.92 2837.5,1147.5C 2841.26,1146.3 2844.93,1144.8 2848.5,1143C 2849.44,1140.62 2849.77,1138.12 2849.5,1135.5C 2861.44,1138.09 2873.44,1140.42 2885.5,1142.5C 2885.5,1132.17 2885.5,1121.83 2885.5,1111.5C 2883.04,1108.54 2880.37,1105.7 2877.5,1103C 2868.17,1102.5 2858.84,1102.33 2849.5,1102.5C 2849.17,1082.99 2849.5,1063.66 2850.5,1044.5C 2861.83,1048.83 2873.17,1053.17 2884.5,1057.5C 2885.21,1058.4 2886.21,1058.74 2887.5,1058.5C 2887.83,930.666 2887.5,802.999 2886.5,675.5C 2874.31,672.37 2861.98,669.37 2849.5,666.5C 2848.87,658.097 2849.53,650.097 2851.5,642.5C 2863.13,645.713 2874.8,648.713 2886.5,651.5C 2886.85,625.445 2887.85,599.445 2889.5,573.5C 2890.15,560.788 2889.48,548.455 2887.5,536.5C 2887.5,519.833 2887.5,503.167 2887.5,486.5C 2858.87,478.507 2830.2,470.507 2801.5,462.5C 2801.44,461.957 2801.11,461.624 2800.5,461.5C 2799.5,480.822 2799.17,500.155 2799.5,519.5C 2767.48,510.104 2735.48,500.604 2703.5,491C 2701.85,489.538 2700.85,487.705 2700.5,485.5C 2700.5,440.833 2700.5,396.167 2700.5,351.5C 2698.53,351.261 2696.7,351.594 2695,352.5C 2690.71,350.459 2686.21,349.126 2681.5,348.5C 2679.25,328.157 2676.92,307.824 2674.5,287.5C 2676.56,287.483 2678.56,287.15 2680.5,286.5 Z"/></g>
<g><path style="opacity:1" fill="#7d7c7c" d="M 3068.5,297.5 C 3072.06,301.614 3075.4,305.948 3078.5,310.5C 3079.6,312.389 3080.94,314.055 3082.5,315.5C 3084.11,318.286 3085.95,320.953 3088,323.5C 3088.67,324.833 3088.67,326.167 3088,327.5C 3083.41,332.151 3077.91,335.318 3071.5,337C 3035.65,345.095 2999.32,349.762 2962.5,351C 2935.5,351.667 2908.5,351.667 2881.5,351C 2853.84,350.278 2826.5,346.944 2799.5,341C 2793.72,339.631 2788.38,337.297 2783.5,334C 2781.72,331.757 2781.22,329.257 2782,326.5C 2783.83,324.667 2785.67,322.833 2787.5,321C 2786.91,320.536 2786.24,320.369 2785.5,320.5C 2788.73,318.939 2791.4,316.606 2793.5,313.5C 2796.82,308.848 2800.49,304.515 2804.5,300.5C 2804.87,304.043 2806.87,306.21 2810.5,307C 2825.63,310.633 2840.97,312.966 2856.5,314C 2893.49,315.452 2930.49,315.786 2967.5,315C 2998.88,314.137 3029.88,310.47 3060.5,304C 3062.5,303 3064.5,302 3066.5,301C 3067.82,300.184 3068.49,299.017 3068.5,297.5 Z"/></g>
<g><path style="opacity:1" fill="#7c7c7c" d="M 4044.5,301.5 C 4047.14,306.085 4048.81,311.085 4049.5,316.5C 4046.25,317.054 4043.25,318.054 4040.5,319.5C 4038.13,314.73 4036.13,309.73 4034.5,304.5C 4037.83,303.5 4041.17,302.5 4044.5,301.5 Z"/></g>
<g><path style="opacity:1" fill="#444444" d="M 3473.5,401.5 C 3475.3,407.579 3477.3,413.579 3479.5,419.5C 3482.83,429.167 3486.17,438.833 3489.5,448.5C 3490.7,455.098 3492.7,461.431 3495.5,467.5C 3512.7,517.759 3529.7,568.092 3546.5,618.5C 3547.53,624.915 3549.53,630.915 3552.5,636.5C 3556.13,648.39 3560.13,660.057 3564.5,671.5C 3565.72,678.167 3567.72,684.501 3570.5,690.5C 3578.7,715.105 3586.7,739.772 3594.5,764.5C 3567.03,772.823 3539.7,781.656 3512.5,791C 3510.83,791.667 3509.17,791.667 3507.5,791C 3482.64,759.643 3457.98,728.143 3433.5,696.5C 3389.08,686.849 3344.58,677.515 3300,668.5C 3280.92,672.852 3261.92,677.519 3243,682.5C 3241.67,682.245 3240.67,681.578 3240,680.5C 3236.39,669.179 3232.89,657.845 3229.5,646.5C 3224.47,647.341 3219.47,648.341 3214.5,649.5C 3213.81,645.055 3212.64,640.722 3211,636.5C 3210.95,639.865 3211.45,643.199 3212.5,646.5C 3211.37,651.147 3208.54,652.48 3204,650.5C 3203.13,646.73 3201.97,643.064 3200.5,639.5C 3200.17,639.833 3199.83,640.167 3199.5,640.5C 3201.48,644.395 3202.15,648.395 3201.5,652.5C 3198.76,654.987 3196.09,654.987 3193.5,652.5C 3192.65,649.452 3191.65,646.452 3190.5,643.5C 3189.58,642.438 3188.58,642.438 3187.5,643.5C 3187.67,638.821 3187.5,634.155 3187,629.5C 3185.33,625.476 3183.16,621.809 3180.5,618.5C 3181.5,618.5 3182.5,618.5 3183.5,618.5C 3182.66,614.139 3181.66,609.805 3180.5,605.5C 3180.57,604.228 3180.9,603.062 3181.5,602C 3184.1,601.231 3186.6,601.398 3189,602.5C 3190.35,606.91 3191.85,611.243 3193.5,615.5C 3193.83,615.333 3194.17,615.167 3194.5,615C 3193.07,610.886 3191.74,606.719 3190.5,602.5C 3192.08,598.945 3194.74,597.778 3198.5,599C 3200.52,603.403 3202.36,607.903 3204,612.5C 3203.48,607.092 3202.32,601.758 3200.5,596.5C 3203.37,595.226 3206.37,594.393 3209.5,594C 3210.52,593.481 3211.18,592.647 3211.5,591.5C 3207.79,580.224 3204.63,568.891 3202,557.5C 3220.2,551.268 3238.36,544.934 3256.5,538.5C 3286.52,504.982 3316.35,471.315 3346,437.5C 3348.97,401.319 3351.8,365.152 3354.5,329C 3383.76,321.683 3413.09,315.016 3442.5,309C 3453.13,339.729 3463.47,370.563 3473.5,401.5 Z"/></g>
<g><path style="opacity:1" fill="#f1ae25" d="M 2688.5,287.5 C 2689.96,287.433 2691.29,287.766 2692.5,288.5C 2694.14,288.286 2695.64,288.62 2697,289.5C 2699.21,299.449 2701.21,309.449 2703,319.5C 2704.05,321.09 2705.21,322.59 2706.5,324C 2735.52,320.914 2764.52,317.414 2793.5,313.5C 2791.4,316.606 2788.73,318.939 2785.5,320.5C 2778.98,321.725 2773.15,324.392 2768,328.5C 2767.33,330.5 2767.33,332.5 2768,334.5C 2776.99,340.211 2786.82,343.711 2797.5,345C 2849.91,352.434 2902.57,355.1 2955.5,353C 3000.06,352.611 3044.06,347.611 3087.5,338C 3092.74,336.587 3097.74,334.587 3102.5,332C 3106.73,329.671 3107.4,326.671 3104.5,323C 3097.66,318.998 3090.33,316.498 3082.5,315.5C 3080.94,314.055 3079.6,312.389 3078.5,310.5C 3100.61,313.372 3122.61,316.705 3144.5,320.5C 3146.76,321.219 3149.1,321.552 3151.5,321.5C 3153.9,321.448 3156.24,321.781 3158.5,322.5C 3160.44,323.15 3162.44,323.483 3164.5,323.5C 3170.41,323.863 3176.07,324.863 3181.5,326.5C 3086.9,343.267 2992.23,359.6 2897.5,375.5C 2832.1,359.483 2766.76,343.149 2701.5,326.5C 2700.83,333.167 2700.17,339.833 2699.5,346.5C 2698.17,345.833 2696.83,345.167 2695.5,344.5C 2692.71,325.564 2690.37,306.564 2688.5,287.5 Z"/></g>
<g><path style="opacity:1" fill="#474643" d="M 3151.5,321.5 C 3149.1,321.552 3146.76,321.219 3144.5,320.5C 3145.08,316.63 3147.08,313.964 3150.5,312.5C 3152.07,312.477 3153.4,312.977 3154.5,314C 3153.01,316.308 3152.01,318.808 3151.5,321.5 Z"/></g>
<g><path style="opacity:1" fill="#464543" d="M 3164.5,323.5 C 3162.44,323.483 3160.44,323.15 3158.5,322.5C 3159.17,319.833 3159.83,317.167 3160.5,314.5C 3163.16,314.162 3165.49,314.829 3167.5,316.5C 3166.3,318.78 3165.3,321.114 3164.5,323.5 Z"/></g>
<g><path style="opacity:1" fill="#4d4a44" d="M 3082.5,315.5 C 3090.33,316.498 3097.66,318.998 3104.5,323C 3107.4,326.671 3106.73,329.671 3102.5,332C 3097.74,334.587 3092.74,336.587 3087.5,338C 3044.06,347.611 3000.06,352.611 2955.5,353C 2902.57,355.1 2849.91,352.434 2797.5,345C 2786.82,343.711 2776.99,340.211 2768,334.5C 2767.33,332.5 2767.33,330.5 2768,328.5C 2773.15,324.392 2778.98,321.725 2785.5,320.5C 2786.24,320.369 2786.91,320.536 2787.5,321C 2785.67,322.833 2783.83,324.667 2782,326.5C 2781.22,329.257 2781.72,331.757 2783.5,334C 2788.38,337.297 2793.72,339.631 2799.5,341C 2826.5,346.944 2853.84,350.278 2881.5,351C 2908.5,351.667 2935.5,351.667 2962.5,351C 2999.32,349.762 3035.65,345.095 3071.5,337C 3077.91,335.318 3083.41,332.151 3088,327.5C 3088.67,326.167 3088.67,324.833 3088,323.5C 3085.95,320.953 3084.11,318.286 3082.5,315.5 Z"/></g>
<g><path style="opacity:1" fill="#7c7c7c" d="M 3766.5,324.5 C 3769.27,329.801 3771.27,335.468 3772.5,341.5C 3768.4,342.192 3764.4,343.192 3760.5,344.5C 3758.53,338.919 3756.53,333.252 3754.5,327.5C 3758.6,326.808 3762.6,325.808 3766.5,324.5 Z"/></g>
<g><path style="opacity:1" fill="#eca112" d="M 3181.5,326.5 C 3181.5,336.5 3181.5,346.5 3181.5,356.5C 3169.03,355.26 3156.36,353.427 3143.5,351C 3139.5,350.333 3135.5,350.333 3131.5,351C 3080,361.167 3028.5,371.333 2977,381.5C 2975.62,381.684 2974.79,382.351 2974.5,383.5C 2973.42,383.461 2972.42,383.127 2971.5,382.5C 2970.33,399.824 2970.17,417.157 2971,434.5C 2990.98,440.991 3011.14,446.991 3031.5,452.5C 3068.36,452.54 3105.36,451.54 3142.5,449.5C 3142.5,433.167 3142.5,416.833 3142.5,400.5C 3106.83,400.5 3071.17,400.5 3035.5,400.5C 3035.5,400.167 3035.5,399.833 3035.5,399.5C 3071.83,399.667 3108.17,399.5 3144.5,399C 3152.09,397.026 3159.59,394.859 3167,392.5C 3167.15,409.195 3167.81,425.861 3169,442.5C 3172.71,439.285 3176.54,436.285 3180.5,433.5C 3179.73,494.165 3179.07,554.832 3178.5,615.5C 3177.61,614.89 3176.61,614.557 3175.5,614.5C 3173.88,612.684 3171.88,611.351 3169.5,610.5C 3171.79,608.733 3174.46,607.733 3177.5,607.5C 3177.5,604.833 3177.5,602.167 3177.5,599.5C 3175.19,599.993 3172.86,600.326 3170.5,600.5C 3170.83,599.167 3171.17,597.833 3171.5,596.5C 3171.64,593.65 3171.97,590.817 3172.5,588C 3172.39,586.319 3171.73,585.152 3170.5,584.5C 3161.24,581.135 3151.74,578.135 3142,575.5C 3127.33,578.332 3112.83,581.332 3098.5,584.5C 3097.51,594.987 3097.17,605.654 3097.5,616.5C 3030.58,630.919 2963.58,644.919 2896.5,658.5C 2897.09,581.667 2897.76,504.833 2898.5,428C 2898.49,410.428 2898.16,392.928 2897.5,375.5C 2992.23,359.6 3086.9,343.267 3181.5,326.5 Z"/></g>
<g><path style="opacity:1" fill="#7c7c7c" d="M 4572.5,327.5 C 4574.64,330.8 4575.98,334.467 4576.5,338.5C 4572.98,339.964 4569.31,340.964 4565.5,341.5C 4563.4,338.203 4562.07,334.537 4561.5,330.5C 4565.21,329.656 4568.88,328.656 4572.5,327.5 Z"/></g>
<g><path style="opacity:1" fill="#f3af25" d="M 3181.5,356.5 C 3188.07,357.927 3194.73,358.927 3201.5,359.5C 3201.41,364.537 3201.75,369.537 3202.5,374.5C 3201.14,373.315 3199.64,372.315 3198,371.5C 3197.1,371.743 3196.26,372.077 3195.5,372.5C 3192.71,373.392 3191.37,375.392 3191.5,378.5C 3190.83,383.833 3190.17,389.167 3189.5,394.5C 3188.91,391.309 3187.74,388.309 3186,385.5C 3184.1,383.316 3181.94,382.983 3179.5,384.5C 3178.5,384.414 3177.67,384.748 3177,385.5C 3172.15,398.261 3172.49,410.927 3178,423.5C 3179.26,425.607 3181.1,426.607 3183.5,426.5C 3185.73,425.772 3187.57,424.439 3189,422.5C 3191,416.322 3191.83,409.988 3191.5,403.5C 3191.33,402.508 3191.66,401.842 3192.5,401.5C 3193.16,405.313 3194.33,408.979 3196,412.5C 3197.92,413.916 3199.42,413.582 3200.5,411.5C 3201.5,411.5 3202.5,411.5 3203.5,411.5C 3203.72,412.675 3203.39,413.675 3202.5,414.5C 3195.12,420.885 3187.79,427.218 3180.5,433.5C 3176.54,436.285 3172.71,439.285 3169,442.5C 3167.81,425.861 3167.15,409.195 3167,392.5C 3159.59,394.859 3152.09,397.026 3144.5,399C 3108.17,399.5 3071.83,399.667 3035.5,399.5C 3015.07,394.445 2994.73,389.111 2974.5,383.5C 2974.79,382.351 2975.62,381.684 2977,381.5C 3028.5,371.333 3080,361.167 3131.5,351C 3135.5,350.333 3139.5,350.333 3143.5,351C 3156.36,353.427 3169.03,355.26 3181.5,356.5 Z"/></g>
<g><path style="opacity:1" fill="#7b7b7b" d="M 4586.5,367.5 C 4588.6,370.797 4589.93,374.463 4590.5,378.5C 4586.88,379.656 4583.21,380.656 4579.5,381.5C 4577.79,378.05 4576.46,374.383 4575.5,370.5C 4579.11,369.297 4582.78,368.297 4586.5,367.5 Z"/></g>
<g><path style="opacity:1" fill="#c0bfbf" d="M 3202.5,374.5 C 3207.03,386.785 3207.37,399.119 3203.5,411.5C 3202.5,411.5 3201.5,411.5 3200.5,411.5C 3197.06,407.94 3195.23,403.607 3195,398.5C 3192.93,389.749 3193.1,381.083 3195.5,372.5C 3196.26,372.077 3197.1,371.743 3198,371.5C 3199.64,372.315 3201.14,373.315 3202.5,374.5 Z"/></g>
<g><path style="opacity:1" fill="#7c7c7c" d="M 3782.5,371.5 C 3784.68,376.686 3786.68,382.019 3788.5,387.5C 3784.62,388.903 3780.62,389.903 3776.5,390.5C 3773.99,385.453 3771.99,380.12 3770.5,374.5C 3774.42,373.188 3778.42,372.188 3782.5,371.5 Z"/></g>
<g><path style="opacity:1" fill="#8d8b88" d="M 3195.5,372.5 C 3193.1,381.083 3192.93,389.749 3195,398.5C 3195.23,403.607 3197.06,407.94 3200.5,411.5C 3199.42,413.582 3197.92,413.916 3196,412.5C 3194.33,408.979 3193.16,405.313 3192.5,401.5C 3191.57,393.889 3191.23,386.222 3191.5,378.5C 3191.37,375.392 3192.71,373.392 3195.5,372.5 Z"/></g>
<g><path style="opacity:1" fill="#b39d6b" d="M 3191.5,378.5 C 3191.23,386.222 3191.57,393.889 3192.5,401.5C 3191.66,401.842 3191.33,402.508 3191.5,403.5C 3190.76,400.61 3190.09,397.61 3189.5,394.5C 3190.17,389.167 3190.83,383.833 3191.5,378.5 Z"/></g>
<g><path style="opacity:1" fill="#8f4b00" d="M 2974.5,383.5 C 2994.73,389.111 3015.07,394.445 3035.5,399.5C 3035.5,399.833 3035.5,400.167 3035.5,400.5C 3034.95,417.828 3034.62,435.162 3034.5,452.5C 3033.5,452.5 3032.5,452.5 3031.5,452.5C 3011.14,446.991 2990.98,440.991 2971,434.5C 2970.17,417.157 2970.33,399.824 2971.5,382.5C 2972.42,383.127 2973.42,383.461 2974.5,383.5 Z"/></g>
<g><path style="opacity:1" fill="#c1c0bf" d="M 3189.5,394.5 C 3190.09,397.61 3190.76,400.61 3191.5,403.5C 3191.83,409.988 3191,416.322 3189,422.5C 3187.57,424.439 3185.73,425.772 3183.5,426.5C 3180.27,422.039 3178.11,417.039 3177,411.5C 3176.33,404.833 3176.33,398.167 3177,391.5C 3177.38,388.94 3178.22,386.606 3179.5,384.5C 3181.94,382.983 3184.1,383.316 3186,385.5C 3187.74,388.309 3188.91,391.309 3189.5,394.5 Z"/></g>
<g><path style="opacity:1" fill="#8f8d8a" d="M 3179.5,384.5 C 3178.22,386.606 3177.38,388.94 3177,391.5C 3176.33,398.167 3176.33,404.833 3177,411.5C 3178.11,417.039 3180.27,422.039 3183.5,426.5C 3181.1,426.607 3179.26,425.607 3178,423.5C 3172.49,410.927 3172.15,398.261 3177,385.5C 3177.67,384.748 3178.5,384.414 3179.5,384.5 Z"/></g>
<g><path style="opacity:1" fill="#7d7c7b" d="M 2868.5,405.5 C 2869.15,414.425 2869.49,423.425 2869.5,432.5C 2869.5,441.527 2868.83,450.193 2867.5,458.5C 2845.13,452.376 2822.79,446.043 2800.5,439.5C 2799.5,422.179 2799.17,404.846 2799.5,387.5C 2822.42,393.793 2845.42,399.793 2868.5,405.5 Z"/></g>
<g><path style="opacity:1" fill="#7c7c7c" d="M 4342.5,392.5 C 4345.13,396.377 4346.8,400.71 4347.5,405.5C 4344.15,406.503 4340.82,407.503 4337.5,408.5C 4336.88,408.389 4336.38,408.056 4336,407.5C 4334.92,403.441 4333.76,399.441 4332.5,395.5C 4335.85,394.497 4339.18,393.497 4342.5,392.5 Z"/></g>
<g><path style="opacity:1" fill="#7c7c7c" d="M 3485.5,398.5 C 3488.07,404.216 3490.07,410.216 3491.5,416.5C 3487.68,418.122 3483.68,419.122 3479.5,419.5C 3477.3,413.579 3475.3,407.579 3473.5,401.5C 3477.42,400.188 3481.42,399.188 3485.5,398.5 Z"/></g>
<g><path style="opacity:1" fill="#d87003" d="M 3035.5,400.5 C 3071.17,400.5 3106.83,400.5 3142.5,400.5C 3142.5,416.833 3142.5,433.167 3142.5,449.5C 3105.36,451.54 3068.36,452.54 3031.5,452.5C 3032.5,452.5 3033.5,452.5 3034.5,452.5C 3034.62,435.162 3034.95,417.828 3035.5,400.5 Z"/></g>
<g><path style="opacity:1" fill="#4c4946" d="M 3111.5,402.5 C 3104.18,407.474 3100.85,414.474 3101.5,423.5C 3101.43,433.344 3105.09,441.344 3112.5,447.5C 3107.94,447.45 3104.44,445.45 3102,441.5C 3095.56,430.814 3094.9,419.814 3100,408.5C 3102.69,404.238 3106.52,402.238 3111.5,402.5 Z"/></g>
<g><path style="opacity:1" fill="#c0bfbf" d="M 3111.5,402.5 C 3121.05,403.21 3127.22,408.21 3130,417.5C 3132.62,426.274 3131.62,434.607 3127,442.5C 3123.22,446.99 3118.39,448.657 3112.5,447.5C 3105.09,441.344 3101.43,433.344 3101.5,423.5C 3100.85,414.474 3104.18,407.474 3111.5,402.5 Z"/></g>
<g><path style="opacity:1" fill="#bfbfbe" d="M 3061.5,403.5 C 3070.96,404.794 3076.8,410.127 3079,419.5C 3081.53,430.175 3079.03,439.341 3071.5,447C 3066.58,449.583 3061.58,450.083 3056.5,448.5C 3047.36,440.207 3044.19,429.541 3047,416.5C 3049.59,409.402 3054.42,405.068 3061.5,403.5 Z"/></g>
<g><path style="opacity:1" fill="#4b4846" d="M 3061.5,403.5 C 3054.42,405.068 3049.59,409.402 3047,416.5C 3044.19,429.541 3047.36,440.207 3056.5,448.5C 3048.94,445.422 3044.44,439.755 3043,431.5C 3040.48,421.43 3042.98,412.93 3050.5,406C 3053.87,403.922 3057.54,403.089 3061.5,403.5 Z"/></g>
<g><path style="opacity:1" fill="#83633d" d="M 2868.5,405.5 C 2870.49,423.136 2871.15,441.136 2870.5,459.5C 2869.21,459.737 2868.21,459.404 2867.5,458.5C 2868.83,450.193 2869.5,441.527 2869.5,432.5C 2869.49,423.425 2869.15,414.425 2868.5,405.5 Z"/></g>
<g><path style="opacity:1" fill="#444443" d="M 2642.5,584.5 C 2647.21,583.657 2651.87,582.49 2656.5,581C 2665.79,579.075 2670.95,582.908 2672,592.5C 2673.03,596.18 2672.19,599.347 2669.5,602C 2662.68,604.434 2656.02,606.934 2649.5,609.5C 2647.44,609.687 2645.44,610.187 2643.5,611C 2646.05,616.959 2647.55,623.126 2648,629.5C 2645.5,631.536 2642.83,631.87 2640,630.5C 2638.18,624.714 2636.18,619.047 2634,613.5C 2634.95,619.215 2636.45,624.882 2638.5,630.5C 2635.98,634.591 2632.81,635.258 2629,632.5C 2628.67,631.167 2628.33,629.833 2628,628.5C 2627.52,629.448 2627.35,630.448 2627.5,631.5C 2622.16,632.891 2616.82,634.391 2611.5,636C 2616.03,649.244 2620.36,662.577 2624.5,676C 2624.17,676.5 2623.83,677 2623.5,677.5C 2603.81,683.897 2584.14,690.397 2564.5,697C 2535.57,720.714 2506.74,744.547 2478,768.5C 2473.56,815.476 2469.39,862.476 2465.5,909.5C 2431.13,918.287 2396.8,927.287 2362.5,936.5C 2361.83,936.167 2361.17,935.833 2360.5,935.5C 2349.52,901.58 2338.85,867.58 2328.5,833.5C 2327.25,827.423 2325.25,821.757 2322.5,816.5C 2319.01,804.872 2315.68,793.205 2312.5,781.5C 2310.54,776.668 2309.04,771.668 2308,766.5C 2307.62,765.944 2307.12,765.611 2306.5,765.5C 2290.17,712.833 2273.83,660.167 2257.5,607.5C 2256.25,601.407 2254.25,595.741 2251.5,590.5C 2249.36,582.758 2247.03,575.092 2244.5,567.5C 2243.84,561.517 2242.17,555.851 2239.5,550.5C 2228.51,515.861 2217.51,481.195 2206.5,446.5C 2240.19,437.727 2274.02,429.394 2308,421.5C 2333.26,453.815 2358.43,486.315 2383.5,519C 2429.38,530.762 2475.22,542.595 2521,554.5C 2541.68,548.954 2562.52,543.954 2583.5,539.5C 2587.5,552.5 2591.5,565.5 2595.5,578.5C 2600.63,578.141 2605.63,577.141 2610.5,575.5C 2611.25,576.376 2611.75,577.376 2612,578.5C 2612,575.833 2612,573.167 2612,570.5C 2614.31,568.963 2616.81,568.463 2619.5,569C 2621.93,575.876 2624.43,582.709 2627,589.5C 2625.64,583.231 2624.14,576.898 2622.5,570.5C 2622.57,569.228 2622.9,568.062 2623.5,567C 2626.26,565.047 2628.76,565.213 2631,567.5C 2632.68,574.053 2634.85,580.386 2637.5,586.5C 2639.34,585.972 2641,585.306 2642.5,584.5 Z M 2613.5,581.5 C 2614.92,583.515 2615.59,585.848 2615.5,588.5C 2614.08,586.485 2613.41,584.152 2613.5,581.5 Z"/></g>
<g><path style="opacity:1" fill="#7b7b7b" d="M 4357.5,435.5 C 4359.73,439.522 4361.4,443.856 4362.5,448.5C 4358.78,449.297 4355.11,450.297 4351.5,451.5C 4349.66,447.32 4347.99,442.987 4346.5,438.5C 4350.22,437.703 4353.89,436.703 4357.5,435.5 Z"/></g>
<g><path style="opacity:1" fill="#7b7b7b" d="M 3501.5,445.5 C 3503.9,451.696 3505.9,458.029 3507.5,464.5C 3503.58,465.812 3499.58,466.812 3495.5,467.5C 3492.7,461.431 3490.7,455.098 3489.5,448.5C 3493.68,448.122 3497.68,447.122 3501.5,445.5 Z"/></g>
<g><path style="opacity:1" fill="#4b4b4b" d="M 2217.5,555.5 C 2218.73,561.533 2220.73,567.2 2223.5,572.5C 2225.83,580.499 2228.17,588.499 2230.5,596.5C 2232.16,601.824 2233.83,607.157 2235.5,612.5C 2252.5,665.167 2269.5,717.833 2286.5,770.5C 2287.89,775.844 2289.39,781.177 2291,786.5C 2291.38,787.056 2291.88,787.389 2292.5,787.5C 2295.84,799.173 2299.17,810.839 2302.5,822.5C 2304.33,827.992 2306.33,833.326 2308.5,838.5C 2319.29,872.883 2330.29,907.216 2341.5,941.5C 2341.29,942.086 2340.96,942.586 2340.5,943C 2225.69,977.244 2110.86,1011.41 1996,1045.5C 1995.23,1045.36 1994.56,1045.02 1994,1044.5C 1992.52,1040.57 1991.36,1036.57 1990.5,1032.5C 1996.83,1009.02 2001,985.02 2003,960.5C 2003.43,866.073 2012.1,772.407 2029,679.5C 2041.14,611.972 2055.64,544.972 2072.5,478.5C 2110,469.532 2147.67,461.199 2185.5,453.5C 2195.86,487.586 2206.52,521.586 2217.5,555.5 Z"/></g>
<g><path style="opacity:1" fill="#7c7c7c" d="M 4098.5,461.5 C 4100.76,466.285 4102.43,471.285 4103.5,476.5C 4100.34,477.331 4097.34,478.331 4094.5,479.5C 4092.02,474.854 4090.36,469.854 4089.5,464.5C 4092.55,463.654 4095.55,462.654 4098.5,461.5 Z"/></g>
<g><path style="opacity:1" fill="#7d6f5b" d="M 2801.5,462.5 C 2800.5,481.326 2800.17,500.326 2800.5,519.5C 2800.17,519.5 2799.83,519.5 2799.5,519.5C 2799.17,500.155 2799.5,480.822 2800.5,461.5C 2801.11,461.624 2801.44,461.957 2801.5,462.5 Z"/></g>
<g><path style="opacity:1" fill="#7c7c7c" d="M 2801.5,462.5 C 2830.2,470.507 2858.87,478.507 2887.5,486.5C 2887.5,503.167 2887.5,519.833 2887.5,536.5C 2884.61,537.403 2881.61,537.736 2878.5,537.5C 2869.01,536.506 2859.35,536.173 2849.5,536.5C 2849.74,535.209 2849.4,534.209 2848.5,533.5C 2844.58,531.971 2840.58,530.637 2836.5,529.5C 2824.14,527.154 2812.14,523.821 2800.5,519.5C 2800.17,500.326 2800.5,481.326 2801.5,462.5 Z"/></g>
<g><path style="opacity:1" fill="#565656" d="M 2072.5,478.5 C 2055.64,544.972 2041.14,611.972 2029,679.5C 2012.1,772.407 2003.43,866.073 2003,960.5C 2001,985.02 1996.83,1009.02 1990.5,1032.5C 1979.99,1001.64 1969.66,970.643 1959.5,939.5C 1957.94,932.469 1955.6,925.802 1952.5,919.5C 1949.57,908.381 1946.24,897.381 1942.5,886.5C 1940.73,879.861 1938.4,873.527 1935.5,867.5C 1918.57,813.71 1901.24,760.044 1883.5,706.5C 1881.54,699.608 1879.2,692.941 1876.5,686.5C 1874.23,678.028 1871.56,669.695 1868.5,661.5C 1866.94,654.469 1864.6,647.802 1861.5,641.5C 1849.96,605.555 1838.63,569.555 1827.5,533.5C 1909.2,515.294 1990.86,496.961 2072.5,478.5 Z"/></g>
<g><path style="opacity:1" fill="#6a6a6a" d="M 2678.5,488.5 C 2681.95,491.219 2685.95,492.885 2690.5,493.5C 2690.5,693.167 2690.5,892.833 2690.5,1092.5C 2686.21,1091.34 2681.87,1090.34 2677.5,1089.5C 2677.5,932.833 2677.5,776.167 2677.5,619.5C 2678.5,601.674 2678.83,583.674 2678.5,565.5C 2678.5,557.833 2678.5,550.167 2678.5,542.5C 2678.5,537.5 2678.5,532.5 2678.5,527.5C 2678.81,524.615 2678.47,521.948 2677.5,519.5C 2677.17,508.986 2677.51,498.653 2678.5,488.5 Z"/></g>
<g><path style="opacity:1" fill="#bebebd" d="M 2700.5,485.5 C 2700.85,487.705 2701.85,489.538 2703.5,491C 2735.48,500.604 2767.48,510.104 2799.5,519.5C 2799.83,519.5 2800.17,519.5 2800.5,519.5C 2812.14,523.821 2824.14,527.154 2836.5,529.5C 2832.74,531.216 2829.07,533.216 2825.5,535.5C 2782.57,520.97 2739.24,506.97 2695.5,493.5C 2692.59,500.233 2694.59,503.9 2701.5,504.5C 2701.33,508.514 2701.5,512.514 2702,516.5C 2702.23,517.737 2702.73,518.737 2703.5,519.5C 2720.65,561.133 2738.32,602.467 2756.5,643.5C 2757.68,647.365 2759.01,651.199 2760.5,655C 2759.74,659.397 2758.58,659.564 2757,655.5C 2736.19,606.051 2715.19,556.717 2694,507.5C 2693.33,518.5 2693.33,529.5 2694,540.5C 2696.79,546.407 2699.29,552.407 2701.5,558.5C 2701.5,621.5 2701.5,684.5 2701.5,747.5C 2699.02,751.778 2696.52,756.112 2694,760.5C 2693.33,766.5 2693.33,772.5 2694,778.5C 2714.91,747.672 2735.58,716.672 2756,685.5C 2756.79,686.745 2757.29,688.078 2757.5,689.5C 2740.47,713.87 2723.81,738.537 2707.5,763.5C 2703.83,767.5 2701.83,772.167 2701.5,777.5C 2701.01,779.948 2701.84,781.615 2704,782.5C 2740.12,793.404 2776.28,804.07 2812.5,814.5C 2814.45,817 2815.12,819.667 2814.5,822.5C 2773.95,809.457 2733.29,796.79 2692.5,784.5C 2690.68,792.28 2693.68,795.947 2701.5,795.5C 2701.5,799.5 2701.5,803.5 2701.5,807.5C 2702.77,812.307 2704.44,816.973 2706.5,821.5C 2706.93,822.71 2707.6,823.71 2708.5,824.5C 2722.51,858.348 2737.01,892.015 2752,925.5C 2755.09,932.332 2757.59,939.332 2759.5,946.5C 2759.22,947.289 2758.72,947.956 2758,948.5C 2736.47,899.583 2715.14,850.583 2694,801.5C 2693.33,812.167 2693.33,822.833 2694,833.5C 2696.79,839.407 2699.29,845.407 2701.5,851.5C 2701.5,913.167 2701.5,974.833 2701.5,1036.5C 2699.26,1040.64 2696.76,1044.64 2694,1048.5C 2693.33,1054.83 2693.33,1061.17 2694,1067.5C 2714.33,1036.83 2734.67,1006.17 2755,975.5C 2756.04,976.244 2756.54,977.244 2756.5,978.5C 2741.08,1002.34 2725.42,1026 2709.5,1049.5C 2704.29,1054.55 2701.63,1060.72 2701.5,1068C 2701.83,1070.5 2702.17,1073 2702.5,1075.5C 2704.78,1076.7 2707.11,1077.7 2709.5,1078.5C 2745.5,1091.5 2781.5,1104.5 2817.5,1117.5C 2820.29,1120.05 2821.62,1123.05 2821.5,1126.5C 2778.93,1110.3 2736.43,1093.96 2694,1077.5C 2693.18,1080.88 2693.34,1084.22 2694.5,1087.5C 2695.74,1087.94 2696.74,1088.61 2697.5,1089.5C 2695.29,1090.77 2692.95,1091.77 2690.5,1092.5C 2690.5,892.833 2690.5,693.167 2690.5,493.5C 2685.95,492.885 2681.95,491.219 2678.5,488.5C 2682.09,486.123 2685.92,484.123 2690,482.5C 2693.43,483.811 2696.93,484.811 2700.5,485.5 Z"/></g>
<g><path style="opacity:1" fill="#6b6a6a" d="M 2825.5,535.5 C 2829.11,537.931 2833.11,539.597 2837.5,540.5C 2837.5,742.833 2837.5,945.167 2837.5,1147.5C 2833.41,1146.92 2829.41,1145.92 2825.5,1144.5C 2824.83,1142.5 2824.17,1140.5 2823.5,1138.5C 2782.62,1122.1 2741.62,1106.1 2700.5,1090.5C 2699.61,1089.89 2698.61,1089.56 2697.5,1089.5C 2696.74,1088.61 2695.74,1087.94 2694.5,1087.5C 2693.34,1084.22 2693.18,1080.88 2694,1077.5C 2736.43,1093.96 2778.93,1110.3 2821.5,1126.5C 2821.62,1123.05 2820.29,1120.05 2817.5,1117.5C 2818.04,1117.44 2818.38,1117.11 2818.5,1116.5C 2798,1070.31 2777.34,1024.31 2756.5,978.5C 2756.54,977.244 2756.04,976.244 2755,975.5C 2734.67,1006.17 2714.33,1036.83 2694,1067.5C 2693.33,1061.17 2693.33,1054.83 2694,1048.5C 2696.76,1044.64 2699.26,1040.64 2701.5,1036.5C 2717.81,1011.23 2734.14,985.898 2750.5,960.5C 2747.83,954.804 2745.16,949.137 2742.5,943.5C 2731.62,918.071 2720.45,892.737 2709,867.5C 2708.5,888.497 2708.33,909.497 2708.5,930.5C 2707.67,908.337 2707.17,886.004 2707,863.5C 2705.39,859.29 2703.56,855.29 2701.5,851.5C 2699.29,845.407 2696.79,839.407 2694,833.5C 2693.33,822.833 2693.33,812.167 2694,801.5C 2715.14,850.583 2736.47,899.583 2758,948.5C 2758.72,947.956 2759.22,947.289 2759.5,946.5C 2780.69,912.775 2802.19,879.108 2824,845.5C 2824.67,842.5 2824.67,839.5 2824,836.5C 2786.07,823.479 2747.9,811.145 2709.5,799.5C 2709.81,803.042 2709.48,806.375 2708.5,809.5C 2708.17,809.5 2707.83,809.5 2707.5,809.5C 2705.58,808.637 2703.58,807.971 2701.5,807.5C 2701.5,803.5 2701.5,799.5 2701.5,795.5C 2693.68,795.947 2690.68,792.28 2692.5,784.5C 2733.29,796.79 2773.95,809.457 2814.5,822.5C 2815.12,819.667 2814.45,817 2812.5,814.5C 2794.4,772.648 2776.07,730.981 2757.5,689.5C 2757.29,688.078 2756.79,686.745 2756,685.5C 2735.58,716.672 2714.91,747.672 2694,778.5C 2693.33,772.5 2693.33,766.5 2694,760.5C 2696.52,756.112 2699.02,751.778 2701.5,747.5C 2703.73,744.709 2705.73,741.709 2707.5,738.5C 2708.34,738.158 2708.67,737.492 2708.5,736.5C 2722.54,715.352 2736.38,694.018 2750,672.5C 2746.92,660.67 2742.42,649.337 2736.5,638.5C 2725.34,611.531 2713.68,584.864 2701.5,558.5C 2699.29,552.407 2696.79,546.407 2694,540.5C 2693.33,529.5 2693.33,518.5 2694,507.5C 2715.19,556.717 2736.19,606.051 2757,655.5C 2758.58,659.564 2759.74,659.397 2760.5,655C 2759.01,651.199 2757.68,647.365 2756.5,643.5C 2760.25,645.323 2764.08,645.656 2768,644.5C 2778.33,628.5 2788.67,612.5 2799,596.5C 2799.83,576.492 2799.67,556.492 2798.5,536.5C 2769.17,526.833 2739.83,517.167 2710.5,507.5C 2709.51,511.783 2709.17,516.116 2709.5,520.5C 2707.5,520.167 2705.5,519.833 2703.5,519.5C 2702.73,518.737 2702.23,517.737 2702,516.5C 2701.5,512.514 2701.33,508.514 2701.5,504.5C 2694.59,503.9 2692.59,500.233 2695.5,493.5C 2739.24,506.97 2782.57,520.97 2825.5,535.5 Z"/></g>
<g><path style="opacity:1" fill="#8e4b00" d="M 2756.5,643.5 C 2738.32,602.467 2720.65,561.133 2703.5,519.5C 2705.5,519.833 2707.5,520.167 2709.5,520.5C 2709.17,516.116 2709.51,511.783 2710.5,507.5C 2739.83,517.167 2769.17,526.833 2798.5,536.5C 2799.67,556.492 2799.83,576.492 2799,596.5C 2788.67,612.5 2778.33,628.5 2768,644.5C 2764.08,645.656 2760.25,645.323 2756.5,643.5 Z"/></g>
<g><path style="opacity:1" fill="#7c7c7c" d="M 4114.5,508.5 C 4116.17,513.162 4117.83,517.828 4119.5,522.5C 4116.18,523.497 4112.85,524.497 4109.5,525.5C 4107.64,520.579 4105.97,515.579 4104.5,510.5C 4107.79,509.626 4111.12,508.959 4114.5,508.5 Z"/></g>
<g><path style="opacity:1" fill="#d56e03" d="M 2677.5,519.5 C 2678.47,521.948 2678.81,524.615 2678.5,527.5C 2673.29,526.953 2668.29,525.953 2663.5,524.5C 2667.94,522.462 2672.61,520.796 2677.5,519.5 Z"/></g>
<g><path style="opacity:1" fill="#8f4c02" d="M 2663.5,524.5 C 2668.29,525.953 2673.29,526.953 2678.5,527.5C 2678.5,532.5 2678.5,537.5 2678.5,542.5C 2673.53,541.341 2668.53,540.341 2663.5,539.5C 2662.57,534.334 2662.57,529.334 2663.5,524.5 Z"/></g>
<g><path style="opacity:1" fill="#d6d6d6" d="M 2836.5,529.5 C 2840.58,530.637 2844.58,531.971 2848.5,533.5C 2845.04,536.069 2841.37,538.403 2837.5,540.5C 2833.11,539.597 2829.11,537.931 2825.5,535.5C 2829.07,533.216 2832.74,531.216 2836.5,529.5 Z"/></g>
<g><path style="opacity:1" fill="#c0c0c0" d="M 2848.5,533.5 C 2849.4,534.209 2849.74,535.209 2849.5,536.5C 2848.6,537.209 2848.26,538.209 2848.5,539.5C 2858.49,538.75 2868.49,538.084 2878.5,537.5C 2881.61,537.736 2884.61,537.403 2887.5,536.5C 2889.48,548.455 2890.15,560.788 2889.5,573.5C 2888.5,573.5 2887.5,573.5 2886.5,573.5C 2873.92,570.45 2861.25,567.783 2848.5,565.5C 2848.5,590.833 2848.5,616.167 2848.5,641.5C 2848.5,649.833 2848.5,658.167 2848.5,666.5C 2848.17,722.669 2848.5,778.669 2849.5,834.5C 2861.83,834.5 2874.17,834.5 2886.5,834.5C 2886.5,845.833 2886.5,857.167 2886.5,868.5C 2873.88,865.909 2861.21,863.575 2848.5,861.5C 2848.5,922.167 2848.5,982.833 2848.5,1043.5C 2848.17,1063.34 2848.5,1083.01 2849.5,1102.5C 2849.5,1105.5 2849.5,1108.5 2849.5,1111.5C 2861.5,1111.5 2873.5,1111.5 2885.5,1111.5C 2885.5,1121.83 2885.5,1132.17 2885.5,1142.5C 2873.44,1140.42 2861.44,1138.09 2849.5,1135.5C 2849.77,1138.12 2849.44,1140.62 2848.5,1143C 2844.93,1144.8 2841.26,1146.3 2837.5,1147.5C 2837.5,945.167 2837.5,742.833 2837.5,540.5C 2841.37,538.403 2845.04,536.069 2848.5,533.5 Z"/></g>
<g><path style="opacity:1" fill="#7c7c7c" d="M 3837.5,535.5 C 3839.77,540.98 3841.44,546.647 3842.5,552.5C 3839.15,553.503 3835.82,554.503 3832.5,555.5C 3830.06,550.095 3828.06,544.428 3826.5,538.5C 3830.31,537.964 3833.98,536.964 3837.5,535.5 Z"/></g>
<g><path style="opacity:1" fill="#606060" d="M 2849.5,536.5 C 2859.35,536.173 2869.01,536.506 2878.5,537.5C 2868.49,538.084 2858.49,538.75 2848.5,539.5C 2848.26,538.209 2848.6,537.209 2849.5,536.5 Z"/></g>
<g><path style="opacity:1" fill="#7c7c7c" d="M 2800.5,537.5 C 2808.46,539.748 2816.46,542.081 2824.5,544.5C 2824.67,548.514 2824.5,552.514 2824,556.5C 2816.52,568.607 2808.85,580.607 2801,592.5C 2800.5,574.17 2800.33,555.836 2800.5,537.5 Z"/></g>
<g><path style="opacity:1" fill="#d76f02" d="M 2663.5,539.5 C 2668.53,540.341 2673.53,541.341 2678.5,542.5C 2678.5,550.167 2678.5,557.833 2678.5,565.5C 2671.86,564.591 2665.53,562.924 2659.5,560.5C 2662.6,558.108 2665.93,555.942 2669.5,554C 2667.4,549.195 2665.4,544.362 2663.5,539.5 Z"/></g>
<g><path style="opacity:1" fill="#4b4b4b" d="M 1840.5,646.5 C 1842.46,653.392 1844.8,660.059 1847.5,666.5C 1850.37,675.107 1853.04,683.774 1855.5,692.5C 1857.27,699.139 1859.6,705.473 1862.5,711.5C 1879.97,765.245 1897.64,818.912 1915.5,872.5C 1917.06,879.531 1919.4,886.198 1922.5,892.5C 1925.83,903.5 1929.17,914.5 1932.5,925.5C 1934.66,931.98 1936.99,938.314 1939.5,944.5C 1950.36,978.576 1961.53,1012.58 1973,1046.5C 1973.72,1048.11 1973.55,1049.61 1972.5,1051C 1847.53,1085.66 1722.53,1120.16 1597.5,1154.5C 1611.98,1109.29 1620.48,1062.95 1623,1015.5C 1622.86,942.328 1628.86,869.661 1641,797.5C 1653.99,720.22 1669.82,643.554 1688.5,567.5C 1727.37,557.863 1766.37,549.03 1805.5,541C 1817.67,576 1829.33,611.167 1840.5,646.5 Z"/></g>
<g><path style="opacity:1" fill="#7c7c7c" d="M 2239.5,550.5 C 2242.17,555.851 2243.84,561.517 2244.5,567.5C 2237.54,569.323 2230.54,570.99 2223.5,572.5C 2220.73,567.2 2218.73,561.533 2217.5,555.5C 2225,554.459 2232.33,552.792 2239.5,550.5 Z"/></g>
<g><path style="opacity:1" fill="#8e4b01" d="M 2701.5,558.5 C 2713.68,584.864 2725.34,611.531 2736.5,638.5C 2727.47,636.66 2718.47,634.66 2709.5,632.5C 2709.44,631.957 2709.11,631.624 2708.5,631.5C 2707.5,667.16 2707.17,702.827 2707.5,738.5C 2705.73,741.709 2703.73,744.709 2701.5,747.5C 2701.5,684.5 2701.5,621.5 2701.5,558.5 Z"/></g>
<g><path style="opacity:1" fill="#8d4b02" d="M 2659.5,560.5 C 2665.53,562.924 2671.86,564.591 2678.5,565.5C 2678.83,583.674 2678.5,601.674 2677.5,619.5C 2668.92,617.898 2660.42,615.898 2652,613.5C 2650.41,612.644 2649.57,611.311 2649.5,609.5C 2656.02,606.934 2662.68,604.434 2669.5,602C 2672.19,599.347 2673.03,596.18 2672,592.5C 2670.95,582.908 2665.79,579.075 2656.5,581C 2651.87,582.49 2647.21,583.657 2642.5,584.5C 2642.49,582.692 2642.99,581.025 2644,579.5C 2649.08,572.934 2654.25,566.601 2659.5,560.5 Z"/></g>
<g><path style="opacity:1" fill="#7d7d7d" d="M 2886.5,573.5 C 2886.5,599.5 2886.5,625.5 2886.5,651.5C 2874.8,648.713 2863.13,645.713 2851.5,642.5C 2850.79,641.596 2849.79,641.263 2848.5,641.5C 2848.5,616.167 2848.5,590.833 2848.5,565.5C 2861.25,567.783 2873.92,570.45 2886.5,573.5 Z"/></g>
<g><path style="opacity:1" fill="#565656" d="M 1688.5,567.5 C 1669.82,643.554 1653.99,720.22 1641,797.5C 1628.86,869.661 1622.86,942.328 1623,1015.5C 1620.48,1062.95 1611.98,1109.29 1597.5,1154.5C 1594.99,1156.16 1592.82,1155.82 1591,1153.5C 1580.26,1120.44 1569.42,1087.44 1558.5,1054.5C 1556.6,1046.47 1553.94,1038.8 1550.5,1031.5C 1547.94,1020.82 1544.61,1010.49 1540.5,1000.5C 1538.94,992.832 1536.61,985.499 1533.5,978.5C 1515.9,923.36 1497.9,868.36 1479.5,813.5C 1477.77,805.644 1475.44,797.977 1472.5,790.5C 1469.34,781.021 1466.01,771.688 1462.5,762.5C 1461.35,754.706 1459.01,747.373 1455.5,740.5C 1443.83,703.833 1432.17,667.167 1420.5,630.5C 1509.9,609.754 1599.23,588.754 1688.5,567.5 Z"/></g>
<g><path style="opacity:1" fill="#7e705d" d="M 2886.5,573.5 C 2887.5,573.5 2888.5,573.5 2889.5,573.5C 2887.85,599.445 2886.85,625.445 2886.5,651.5C 2886.5,625.5 2886.5,599.5 2886.5,573.5 Z"/></g>
<g><path style="opacity:1" fill="#f1ad24" d="M 3170.5,584.5 C 3156.89,587.652 3143.22,590.652 3129.5,593.5C 3119.09,590.697 3108.76,587.697 3098.5,584.5C 3112.83,581.332 3127.33,578.332 3142,575.5C 3151.74,578.135 3161.24,581.135 3170.5,584.5 Z"/></g>
<g><path style="opacity:1" fill="#bbbaba" d="M 2824.5,589.5 C 2815.85,602.13 2807.18,614.796 2798.5,627.5C 2793.75,635.337 2788.75,643.004 2783.5,650.5C 2778.52,657.767 2773.52,665.101 2768.5,672.5C 2786.94,715.706 2805.61,758.706 2824.5,801.5C 2824.66,804.518 2824.5,807.518 2824,810.5C 2804.38,764.467 2784.88,718.467 2765.5,672.5C 2784.37,642.12 2803.87,612.12 2824,582.5C 2824.5,584.81 2824.66,587.143 2824.5,589.5 Z"/></g>
<g><path style="opacity:1" fill="#8f4b00" d="M 3098.5,584.5 C 3108.76,587.697 3119.09,590.697 3129.5,593.5C 3130.19,597.584 3131.19,601.584 3132.5,605.5C 3129.19,610.777 3125.86,616.111 3122.5,621.5C 3123.93,623.938 3125.93,625.604 3128.5,626.5C 3132.01,633.676 3135.67,640.842 3139.5,648C 3136.8,654.981 3134.8,662.148 3133.5,669.5C 3127.52,671.163 3121.52,672.83 3115.5,674.5C 3110.18,673.168 3104.85,671.834 3099.5,670.5C 3098.77,655.154 3098.1,639.821 3097.5,624.5C 3097.5,621.833 3097.5,619.167 3097.5,616.5C 3097.17,605.654 3097.51,594.987 3098.5,584.5 Z"/></g>
<g><path style="opacity:1" fill="#d97000" d="M 3170.5,584.5 C 3171.73,585.152 3172.39,586.319 3172.5,588C 3171.97,590.817 3171.64,593.65 3171.5,596.5C 3158.69,600.286 3145.69,603.286 3132.5,605.5C 3131.19,601.584 3130.19,597.584 3129.5,593.5C 3143.22,590.652 3156.89,587.652 3170.5,584.5 Z"/></g>
<g><path style="opacity:1" fill="#7c7c7c" d="M 3853.5,585.5 C 3856.27,590.801 3858.27,596.468 3859.5,602.5C 3856.03,603.101 3852.7,604.101 3849.5,605.5C 3847.06,600.095 3845.06,594.428 3843.5,588.5C 3846.97,587.899 3850.3,586.899 3853.5,585.5 Z"/></g>
<g><path style="opacity:1" fill="#7c7c7c" d="M 2251.5,590.5 C 2254.25,595.741 2256.25,601.407 2257.5,607.5C 2250.24,609.481 2242.91,611.148 2235.5,612.5C 2233.83,607.157 2232.16,601.824 2230.5,596.5C 2237.54,594.655 2244.54,592.655 2251.5,590.5 Z"/></g>
<g><path style="opacity:1" fill="#7d7c7c" d="M 2824.5,589.5 C 2824.5,604.5 2824.5,619.5 2824.5,634.5C 2815.82,632.165 2807.16,629.832 2798.5,627.5C 2807.18,614.796 2815.85,602.13 2824.5,589.5 Z"/></g>
<g><path style="opacity:1" fill="#c86418" d="M 3171.5,596.5 C 3171.17,597.833 3170.83,599.167 3170.5,600.5C 3169.66,602.823 3168.66,605.157 3167.5,607.5C 3167.45,609.038 3168.12,610.038 3169.5,610.5C 3171.88,611.351 3173.88,612.684 3175.5,614.5C 3159.88,618.656 3144.21,622.656 3128.5,626.5C 3125.93,625.604 3123.93,623.938 3122.5,621.5C 3125.86,616.111 3129.19,610.777 3132.5,605.5C 3145.69,603.286 3158.69,600.286 3171.5,596.5 Z"/></g>
<g><path style="opacity:1" fill="#da7101" d="M 3169.5,610.5 C 3168.12,610.038 3167.45,609.038 3167.5,607.5C 3168.66,605.157 3169.66,602.823 3170.5,600.5C 3172.86,600.326 3175.19,599.993 3177.5,599.5C 3177.5,602.167 3177.5,604.833 3177.5,607.5C 3174.46,607.733 3171.79,608.733 3169.5,610.5 Z"/></g>
<g><path style="opacity:1" fill="#f2ae24" d="M 3175.5,614.5 C 3176.61,614.557 3177.61,614.89 3178.5,615.5C 3179.17,616.5 3179.83,617.5 3180.5,618.5C 3183.16,621.809 3185.33,625.476 3187,629.5C 3187.5,634.155 3187.67,638.821 3187.5,643.5C 3186.49,647.207 3185.32,650.873 3184,654.5C 3182.36,656.734 3180.2,658.067 3177.5,658.5C 3162.84,662.164 3148.17,665.831 3133.5,669.5C 3134.8,662.148 3136.8,654.981 3139.5,648C 3135.67,640.842 3132.01,633.676 3128.5,626.5C 3144.21,622.656 3159.88,618.656 3175.5,614.5 Z"/></g>
<g><path style="opacity:1" fill="#7c7c7c" d="M 3558.5,614.5 C 3560.9,620.696 3562.9,627.029 3564.5,633.5C 3560.5,634.5 3556.5,635.5 3552.5,636.5C 3549.53,630.915 3547.53,624.915 3546.5,618.5C 3550.5,617.167 3554.5,615.833 3558.5,614.5 Z"/></g>
<g><path style="opacity:1" fill="#da7100" d="M 3097.5,616.5 C 3097.5,619.167 3097.5,621.833 3097.5,624.5C 3030.39,638.027 2963.39,652.027 2896.5,666.5C 2895.17,663.833 2895.17,661.167 2896.5,658.5C 2963.58,644.919 3030.58,630.919 3097.5,616.5 Z"/></g>
<g><path style="opacity:1" fill="#eca111" d="M 3097.5,624.5 C 3098.1,639.821 3098.77,655.154 3099.5,670.5C 3104.85,671.834 3110.18,673.168 3115.5,674.5C 3121.52,672.83 3127.52,671.163 3133.5,669.5C 3148.17,665.831 3162.84,662.164 3177.5,658.5C 3176.9,751.172 3175.9,843.839 3174.5,936.5C 3173.65,971.333 3172.98,1006.33 3172.5,1041.5C 3172.83,1049.17 3173.17,1056.83 3173.5,1064.5C 3467.98,967.228 3762.65,870.562 4057.5,774.5C 4058.11,782.609 4057.45,790.442 4055.5,798C 3761.71,895.543 3468.04,993.376 3174.5,1091.5C 3168.37,1069.3 3162.7,1046.97 3157.5,1024.5C 3150.02,1023.09 3142.52,1021.76 3135,1020.5C 3127.55,1021.49 3120.39,1023.15 3113.5,1025.5C 3112.34,1033.32 3112.18,1041.32 3113,1049.5C 3117.62,1055.79 3122.62,1061.79 3128,1067.5C 3131.62,1078.2 3135.12,1088.86 3138.5,1099.5C 3127.74,1102.88 3117.74,1107.88 3108.5,1114.5C 3107.83,1114.5 3107.5,1114.83 3107.5,1115.5C 3075.5,1126.5 3043.5,1137.5 3011.5,1148.5C 3008.36,1135.95 3005.2,1123.29 3002,1110.5C 2994.17,1107.11 2986.33,1106.78 2978.5,1109.5C 2977.34,1116.99 2977.18,1124.66 2978,1132.5C 2985.26,1139.14 2989.1,1147.48 2989.5,1157.5C 2962.09,1166.64 2934.76,1175.97 2907.5,1185.5C 2907.58,1177.13 2904.91,1169.63 2899.5,1163C 2897.42,1161.3 2895.09,1160.13 2892.5,1159.5C 2892.5,1159.17 2892.5,1158.83 2892.5,1158.5C 2893.5,994.497 2894.83,830.497 2896.5,666.5C 2963.39,652.027 3030.39,638.027 3097.5,624.5 Z"/></g>
<g><path style="opacity:1" fill="#8e4b01" d="M 2798.5,627.5 C 2807.16,629.832 2815.82,632.165 2824.5,634.5C 2824.83,643.017 2824.49,651.35 2823.5,659.5C 2810.13,656.715 2796.79,653.715 2783.5,650.5C 2788.75,643.004 2793.75,635.337 2798.5,627.5 Z"/></g>
<g><path style="opacity:1" fill="#82633e" d="M 2709.5,632.5 C 2708.5,666.996 2708.17,701.663 2708.5,736.5C 2708.67,737.492 2708.34,738.158 2707.5,738.5C 2707.17,702.827 2707.5,667.16 2708.5,631.5C 2709.11,631.624 2709.44,631.957 2709.5,632.5 Z"/></g>
<g><path style="opacity:1" fill="#7c7c7c" d="M 2709.5,632.5 C 2718.47,634.66 2727.47,636.66 2736.5,638.5C 2742.42,649.337 2746.92,660.67 2750,672.5C 2736.38,694.018 2722.54,715.352 2708.5,736.5C 2708.17,701.663 2708.5,666.996 2709.5,632.5 Z"/></g>
<g><path style="opacity:1" fill="#4b4b4b" d="M 1430.5,745.5 C 1432.63,753.225 1434.96,760.891 1437.5,768.5C 1441.1,777.969 1444.1,787.636 1446.5,797.5C 1448.87,805.03 1451.54,812.364 1454.5,819.5C 1472.17,874.834 1489.83,930.167 1507.5,985.5C 1509.61,993.182 1512.28,1000.52 1515.5,1007.5C 1518.06,1018.18 1521.39,1028.51 1525.5,1038.5C 1526.85,1046.56 1529.19,1054.22 1532.5,1061.5C 1543.48,1095.41 1554.14,1129.41 1564.5,1163.5C 1442.87,1199.32 1321.21,1234.99 1199.5,1270.5C 1211.2,1229.32 1218.03,1187.32 1220,1144.5C 1219.83,1074.74 1225.16,1005.41 1236,936.5C 1250.74,843.958 1269.57,752.625 1292.5,662.5C 1326.59,653.847 1360.92,646.014 1395.5,639C 1407.47,674.413 1419.14,709.913 1430.5,745.5 Z"/></g>
<g><path style="opacity:1" fill="#7c7c7c" d="M 1861.5,641.5 C 1864.6,647.802 1866.94,654.469 1868.5,661.5C 1861.46,663.01 1854.46,664.677 1847.5,666.5C 1844.8,660.059 1842.46,653.392 1840.5,646.5C 1847.76,645.452 1854.76,643.785 1861.5,641.5 Z"/></g>
<g><path style="opacity:1" fill="#a58162" d="M 2848.5,641.5 C 2849.79,641.263 2850.79,641.596 2851.5,642.5C 2849.53,650.097 2848.87,658.097 2849.5,666.5C 2849.17,666.5 2848.83,666.5 2848.5,666.5C 2848.5,658.167 2848.5,649.833 2848.5,641.5 Z"/></g>
<g><path style="opacity:1" fill="#7d7d7d" d="M 2783.5,650.5 C 2796.79,653.715 2810.13,656.715 2823.5,659.5C 2824.49,706.761 2824.83,754.095 2824.5,801.5C 2805.61,758.706 2786.94,715.706 2768.5,672.5C 2773.52,665.101 2778.52,657.767 2783.5,650.5 Z"/></g>
<g><path style="opacity:1" fill="#565656" d="M 1292.5,662.5 C 1269.57,752.625 1250.74,843.958 1236,936.5C 1225.16,1005.41 1219.83,1074.74 1220,1144.5C 1218.03,1187.32 1211.2,1229.32 1199.5,1270.5C 1184.16,1275.92 1168.49,1280.59 1152.5,1284.5C 1141.9,1249.71 1130.9,1215.04 1119.5,1180.5C 1116.87,1171.6 1113.87,1162.93 1110.5,1154.5C 1107.5,1144.5 1104.5,1134.5 1101.5,1124.5C 1099.07,1115.86 1096.07,1107.53 1092.5,1099.5C 1074.7,1042.77 1056.7,986.105 1038.5,929.5C 1035.68,921.021 1032.68,912.687 1029.5,904.5C 1026.37,893.773 1023.04,883.106 1019.5,872.5C 1017.23,864.028 1014.56,855.694 1011.5,847.5C 999.304,810.243 987.304,772.91 975.5,735.5C 1081.13,711.009 1186.8,686.675 1292.5,662.5 Z"/></g>
<g><path style="opacity:1" fill="#7d7d7d" d="M 2848.5,666.5 C 2848.83,666.5 2849.17,666.5 2849.5,666.5C 2861.98,669.37 2874.31,672.37 2886.5,675.5C 2886.5,728.167 2886.5,780.833 2886.5,833.5C 2881.69,832.507 2877.02,831.007 2872.5,829C 2864.84,828.5 2857.17,828.334 2849.5,828.5C 2849.5,830.5 2849.5,832.5 2849.5,834.5C 2848.5,778.669 2848.17,722.669 2848.5,666.5 Z"/></g>
<g><path style="opacity:1" fill="#7c7c7c" d="M 3576.5,668.5 C 3578.9,674.696 3580.9,681.029 3582.5,687.5C 3578.4,688.09 3574.4,689.09 3570.5,690.5C 3567.72,684.501 3565.72,678.167 3564.5,671.5C 3568.58,670.812 3572.58,669.812 3576.5,668.5 Z"/></g>
<g><path style="opacity:1" fill="#7c7c7c" d="M 1876.5,686.5 C 1879.2,692.941 1881.54,699.608 1883.5,706.5C 1876.46,708.01 1869.46,709.677 1862.5,711.5C 1859.6,705.473 1857.27,699.139 1855.5,692.5C 1862.63,690.638 1869.63,688.638 1876.5,686.5 Z"/></g>
<g><path style="opacity:1" fill="#7d7d7d" d="M 2757.5,689.5 C 2776.07,730.981 2794.4,772.648 2812.5,814.5C 2776.28,804.07 2740.12,793.404 2704,782.5C 2701.84,781.615 2701.01,779.948 2701.5,777.5C 2703.81,777.993 2706.14,778.326 2708.5,778.5C 2708.82,773.305 2708.49,768.305 2707.5,763.5C 2723.81,738.537 2740.47,713.87 2757.5,689.5 Z"/></g>
<g><path style="opacity:1" fill="#c86418" d="M 3866.5,689.5 C 3868.35,690.69 3870.19,692.023 3872,693.5C 3872.83,704.182 3872.67,714.849 3871.5,725.5C 3870,724.248 3868.33,723.248 3866.5,722.5C 3865.55,720.955 3865.21,719.288 3865.5,717.5C 3865.17,707.985 3865.51,698.652 3866.5,689.5 Z"/></g>
<g><path style="opacity:1" fill="#eca111" d="M 3883.5,690.5 C 3883.5,697.5 3883.5,704.5 3883.5,711.5C 3883.5,715.167 3883.5,718.833 3883.5,722.5C 3880.17,722.998 3877,723.998 3874,725.5C 3873.5,714.505 3873.33,703.505 3873.5,692.5C 3876.88,692.041 3880.21,691.374 3883.5,690.5 Z"/></g>
<g><path style="opacity:1" fill="#da7000" d="M 3883.5,690.5 C 3880.21,691.374 3876.88,692.041 3873.5,692.5C 3873.33,703.505 3873.5,714.505 3874,725.5C 3877,723.998 3880.17,722.998 3883.5,722.5C 3883.5,718.833 3883.5,715.167 3883.5,711.5C 3926.29,726.097 3968.96,741.097 4011.5,756.5C 4011.17,764.196 4011.5,771.862 4012.5,779.5C 4014.74,780.788 4017.07,781.788 4019.5,782.5C 4019.43,782.938 4019.6,783.272 4020,783.5C 4023.17,781.278 4026.67,779.944 4030.5,779.5C 4030.18,774.305 4030.51,769.305 4031.5,764.5C 4040.66,766.88 4049.32,770.213 4057.5,774.5C 3762.65,870.562 3467.98,967.228 3173.5,1064.5C 3173.17,1056.83 3172.83,1049.17 3172.5,1041.5C 3172.98,1006.33 3173.65,971.333 3174.5,936.5C 3284.03,901.435 3393.7,866.768 3503.5,832.5C 3504.41,836.649 3507.07,838.982 3511.5,839.5C 3514.99,837.894 3518.65,836.894 3522.5,836.5C 3522.5,832.833 3522.5,829.167 3522.5,825.5C 3581.56,807.369 3640.56,789.035 3699.5,770.5C 3699.24,775.912 3701.9,778.912 3707.5,779.5C 3710.55,778.705 3713.55,777.705 3716.5,776.5C 3717.22,772.123 3717.89,767.79 3718.5,763.5C 3767.62,748.571 3816.62,733.237 3865.5,717.5C 3865.21,719.288 3865.55,720.955 3866.5,722.5C 3868.33,723.248 3870,724.248 3871.5,725.5C 3872.67,714.849 3872.83,704.182 3872,693.5C 3870.19,692.023 3868.35,690.69 3866.5,689.5C 3869.19,688.436 3872.02,687.436 3875,686.5C 3878.27,687.187 3881.1,688.52 3883.5,690.5 Z"/></g>
<g><path style="opacity:1" fill="#da7000" d="M 3718.5,743.5 C 3714.69,744.036 3711.02,745.036 3707.5,746.5C 3704.68,745.905 3702.35,744.572 3700.5,742.5C 3703.42,741.351 3706.42,740.351 3709.5,739.5C 3712.77,740.469 3715.77,741.802 3718.5,743.5 Z"/></g>
<g><path style="opacity:1" fill="#7c7c7c" d="M 1455.5,740.5 C 1459.01,747.373 1461.35,754.706 1462.5,762.5C 1454.13,764.344 1445.79,766.344 1437.5,768.5C 1434.96,760.891 1432.63,753.225 1430.5,745.5C 1438.8,743.674 1447.14,742.007 1455.5,740.5 Z"/></g>
<g><path style="opacity:1" fill="#da7000" d="M 4030.5,743.5 C 4030.39,744.117 4030.06,744.617 4029.5,745C 4026.18,745.943 4022.84,746.776 4019.5,747.5C 4016.67,746.921 4014.34,745.588 4012.5,743.5C 4018.52,740.924 4024.52,740.924 4030.5,743.5 Z"/></g>
<g><path style="opacity:1" fill="#4b4b4b" d="M 982.5,853.5 C 984.343,862.702 987.343,871.368 991.5,879.5C 994.527,890.276 997.86,900.943 1001.5,911.5C 1003.89,919.845 1006.39,928.178 1009,936.5C 1009.38,937.056 1009.88,937.389 1010.5,937.5C 1028.64,993.91 1046.97,1050.24 1065.5,1106.5C 1067.84,1114.86 1070.34,1123.19 1073,1131.5C 1073.38,1132.06 1073.88,1132.39 1074.5,1132.5C 1077.5,1142.5 1080.5,1152.5 1083.5,1162.5C 1086.13,1171.39 1089.13,1180.06 1092.5,1188.5C 1103.53,1223.1 1114.87,1257.6 1126.5,1292C 992.861,1332.66 859.194,1373.16 725.5,1413.5C 747.126,1358.21 759.626,1300.88 763,1241.5C 762.737,1176.85 767.07,1112.52 776,1048.5C 789.694,954.196 808.194,860.863 831.5,768.5C 869.794,759.677 908.127,751.01 946.5,742.5C 958.102,779.639 970.102,816.639 982.5,853.5 Z"/></g>
<g><path style="opacity:1" fill="#c86518" d="M 3700.5,742.5 C 3702.35,744.572 3704.68,745.905 3707.5,746.5C 3707.5,757.5 3707.5,768.5 3707.5,779.5C 3701.9,778.912 3699.24,775.912 3699.5,770.5C 3699.17,760.985 3699.51,751.652 3700.5,742.5 Z"/></g>
<g><path style="opacity:1" fill="#eca111" d="M 3718.5,743.5 C 3718.5,750.167 3718.5,756.833 3718.5,763.5C 3717.89,767.79 3717.22,772.123 3716.5,776.5C 3713.55,777.705 3710.55,778.705 3707.5,779.5C 3707.5,768.5 3707.5,757.5 3707.5,746.5C 3711.02,745.036 3714.69,744.036 3718.5,743.5 Z"/></g>
<g><path style="opacity:1" fill="#c86418" d="M 4012.5,743.5 C 4014.34,745.588 4016.67,746.921 4019.5,747.5C 4019.5,759.167 4019.5,770.833 4019.5,782.5C 4017.07,781.788 4014.74,780.788 4012.5,779.5C 4011.5,771.862 4011.17,764.196 4011.5,756.5C 4011.18,751.968 4011.52,747.634 4012.5,743.5 Z"/></g>
<g><path style="opacity:1" fill="#eca011" d="M 4030.5,743.5 C 4031.49,750.313 4031.82,757.313 4031.5,764.5C 4030.51,769.305 4030.18,774.305 4030.5,779.5C 4026.67,779.944 4023.17,781.278 4020,783.5C 4019.6,783.272 4019.43,782.938 4019.5,782.5C 4019.5,770.833 4019.5,759.167 4019.5,747.5C 4022.84,746.776 4026.18,745.943 4029.5,745C 4030.06,744.617 4030.39,744.117 4030.5,743.5 Z"/></g>
<g><path style="opacity:1" fill="#7c7c7c" d="M 2306.5,765.5 C 2307.12,765.611 2307.62,765.944 2308,766.5C 2309.04,771.668 2310.54,776.668 2312.5,781.5C 2305.91,783.697 2299.24,785.697 2292.5,787.5C 2291.88,787.389 2291.38,787.056 2291,786.5C 2289.39,781.177 2287.89,775.844 2286.5,770.5C 2293.25,769.146 2299.92,767.479 2306.5,765.5 Z"/></g>
<g><path style="opacity:1" fill="#8c5113" d="M 2707.5,763.5 C 2708.49,768.305 2708.82,773.305 2708.5,778.5C 2706.14,778.326 2703.81,777.993 2701.5,777.5C 2701.83,772.167 2703.83,767.5 2707.5,763.5 Z"/></g>
<g><path style="opacity:1" fill="#565656" d="M 831.5,768.5 C 808.194,860.863 789.694,954.196 776,1048.5C 767.07,1112.52 762.737,1176.85 763,1241.5C 759.626,1300.88 747.126,1358.21 725.5,1413.5C 710.26,1418.36 694.927,1423.02 679.5,1427.5C 678.833,1427.17 678.167,1426.83 677.5,1426.5C 665.093,1390.28 653.093,1353.95 641.5,1317.5C 638.537,1307.61 635.204,1297.94 631.5,1288.5C 628.898,1279.03 625.898,1269.69 622.5,1260.5C 619.932,1250.46 616.599,1240.79 612.5,1231.5C 593.898,1173.36 574.898,1115.36 555.5,1057.5C 552.697,1047.76 549.697,1038.09 546.5,1028.5C 542.5,1016.83 538.5,1005.17 534.5,993.5C 531.936,983.471 528.603,973.805 524.5,964.5C 512.334,925.502 499.667,886.669 486.5,848C 601.34,821.041 716.34,794.541 831.5,768.5 Z"/></g>
<g><path style="opacity:1" fill="#7c7c7c" d="M 1472.5,790.5 C 1475.44,797.977 1477.77,805.644 1479.5,813.5C 1471.13,815.342 1462.8,817.342 1454.5,819.5C 1451.54,812.364 1448.87,805.03 1446.5,797.5C 1455.15,795.17 1463.82,792.837 1472.5,790.5 Z"/></g>
<g><path style="opacity:1" fill="#da7000" d="M 3522.5,801.5 C 3518.83,802.833 3515.17,804.167 3511.5,805.5C 3508.83,804.167 3506.17,802.833 3503.5,801.5C 3509.83,797.5 3516.17,797.5 3522.5,801.5 Z"/></g>
<g><path style="opacity:1" fill="#7d7d7d" d="M 2759.5,946.5 C 2757.59,939.332 2755.09,932.332 2752,925.5C 2737.01,892.015 2722.51,858.348 2708.5,824.5C 2708.5,819.5 2708.5,814.5 2708.5,809.5C 2709.48,806.375 2709.81,803.042 2709.5,799.5C 2747.9,811.145 2786.07,823.479 2824,836.5C 2824.67,839.5 2824.67,842.5 2824,845.5C 2802.19,879.108 2780.69,912.775 2759.5,946.5 Z"/></g>
<g><path style="opacity:1" fill="#c86418" d="M 3854.5,802.5 C 3854.5,814.5 3854.5,826.5 3854.5,838.5C 3851.66,837.828 3849.16,836.494 3847,834.5C 3846.17,822.819 3846.33,811.152 3847.5,799.5C 3849.74,800.788 3852.07,801.788 3854.5,802.5 Z"/></g>
<g><path style="opacity:1" fill="#eca011" d="M 3854.5,838.5 C 3854.5,826.5 3854.5,814.5 3854.5,802.5C 3858.5,801.5 3862.5,800.5 3866.5,799.5C 3866.83,811.186 3866.5,822.852 3865.5,834.5C 3861.96,836.234 3858.3,837.568 3854.5,838.5 Z"/></g>
<g><path style="opacity:1" fill="#c86518" d="M 3503.5,801.5 C 3506.17,802.833 3508.83,804.167 3511.5,805.5C 3511.5,816.833 3511.5,828.167 3511.5,839.5C 3507.07,838.982 3504.41,836.649 3503.5,832.5C 3503.5,822.167 3503.5,811.833 3503.5,801.5 Z"/></g>
<g><path style="opacity:1" fill="#eca111" d="M 3522.5,801.5 C 3522.5,809.5 3522.5,817.5 3522.5,825.5C 3522.5,829.167 3522.5,832.833 3522.5,836.5C 3518.65,836.894 3514.99,837.894 3511.5,839.5C 3511.5,828.167 3511.5,816.833 3511.5,805.5C 3515.17,804.167 3518.83,802.833 3522.5,801.5 Z"/></g>
<g><path style="opacity:1" fill="#8f4d06" d="M 2701.5,807.5 C 2703.58,807.971 2705.58,808.637 2707.5,809.5C 2707.82,813.702 2707.48,817.702 2706.5,821.5C 2704.44,816.973 2702.77,812.307 2701.5,807.5 Z"/></g>
<g><path style="opacity:1" fill="#856640" d="M 2707.5,809.5 C 2707.83,809.5 2708.17,809.5 2708.5,809.5C 2708.5,814.5 2708.5,819.5 2708.5,824.5C 2707.6,823.71 2706.93,822.71 2706.5,821.5C 2707.48,817.702 2707.82,813.702 2707.5,809.5 Z"/></g>
<g><path style="opacity:1" fill="#7c7c7c" d="M 2322.5,816.5 C 2325.25,821.757 2327.25,827.423 2328.5,833.5C 2321.83,835.167 2315.17,836.833 2308.5,838.5C 2306.33,833.326 2304.33,827.992 2302.5,822.5C 2309.17,820.5 2315.83,818.5 2322.5,816.5 Z"/></g>
<g><path style="opacity:1" fill="#575757" d="M 2886.5,833.5 C 2886.5,833.833 2886.5,834.167 2886.5,834.5C 2874.17,834.5 2861.83,834.5 2849.5,834.5C 2849.5,832.5 2849.5,830.5 2849.5,828.5C 2857.17,828.334 2864.84,828.5 2872.5,829C 2877.02,831.007 2881.69,832.507 2886.5,833.5 Z"/></g>
<g><path style="opacity:1" fill="#7c7c7c" d="M 1011.5,847.5 C 1014.56,855.694 1017.23,864.028 1019.5,872.5C 1010.27,875.142 1000.93,877.475 991.5,879.5C 987.343,871.368 984.343,862.702 982.5,853.5C 992.133,851.342 1001.8,849.342 1011.5,847.5 Z"/></g>
<g><path style="opacity:1" fill="#8e4b00" d="M 2701.5,851.5 C 2703.56,855.29 2705.39,859.29 2707,863.5C 2707.17,886.004 2707.67,908.337 2708.5,930.5C 2719.56,935.353 2730.89,939.686 2742.5,943.5C 2745.16,949.137 2747.83,954.804 2750.5,960.5C 2734.14,985.898 2717.81,1011.23 2701.5,1036.5C 2701.5,974.833 2701.5,913.167 2701.5,851.5 Z"/></g>
<g><path style="opacity:1" fill="#4b4b4b" d="M 493.5,971.5 C 496.235,981.804 499.568,991.804 503.5,1001.5C 506.965,1013.23 510.631,1024.89 514.5,1036.5C 517.462,1046.39 520.796,1056.06 524.5,1065.5C 543.102,1123.64 562.102,1181.64 581.5,1239.5C 584.256,1249.77 587.589,1259.77 591.5,1269.5C 594.102,1278.97 597.102,1288.31 600.5,1297.5C 602.677,1307.7 606.01,1317.37 610.5,1326.5C 621.666,1362.5 633.333,1398.33 645.5,1434C 503.742,1475.86 361.742,1517.03 219.5,1557.5C 247.823,1498.35 264.656,1436.02 270,1370.5C 270.495,1260.05 281.828,1150.72 304,1042.5C 314.623,988.881 326.457,935.548 339.5,882.5C 377.78,872.846 416.114,863.679 454.5,855C 467.804,893.745 480.804,932.578 493.5,971.5 Z"/></g>
<g><path style="opacity:1" fill="#c86418" d="M 3662.5,863.5 C 3662.5,875.833 3662.5,888.167 3662.5,900.5C 3660.36,898.926 3658.02,897.592 3655.5,896.5C 3654.33,884.18 3654.17,871.847 3655,859.5C 3657.63,860.752 3660.13,862.086 3662.5,863.5 Z"/></g>
<g><path style="opacity:1" fill="#eca011" d="M 3662.5,900.5 C 3662.5,888.167 3662.5,875.833 3662.5,863.5C 3666.14,862.175 3669.8,860.842 3673.5,859.5C 3674.5,871.815 3674.83,884.149 3674.5,896.5C 3670.29,897.238 3666.29,898.572 3662.5,900.5 Z"/></g>
<g><path style="opacity:1" fill="#7d7d7d" d="M 2886.5,868.5 C 2887.16,931.842 2886.5,994.842 2884.5,1057.5C 2873.17,1053.17 2861.83,1048.83 2850.5,1044.5C 2850.16,1043.66 2849.49,1043.33 2848.5,1043.5C 2848.5,982.833 2848.5,922.167 2848.5,861.5C 2861.21,863.575 2873.88,865.909 2886.5,868.5 Z"/></g>
<g><path style="opacity:1" fill="#7c7c7c" d="M 1935.5,867.5 C 1938.4,873.527 1940.73,879.861 1942.5,886.5C 1935.83,888.5 1929.17,890.5 1922.5,892.5C 1919.4,886.198 1917.06,879.531 1915.5,872.5C 1922.25,871.146 1928.92,869.479 1935.5,867.5 Z"/></g>
<g><path style="opacity:1" fill="#7c7c7c" d="M 2742.5,943.5 C 2730.89,939.686 2719.56,935.353 2708.5,930.5C 2708.33,909.497 2708.5,888.497 2709,867.5C 2720.45,892.737 2731.62,918.071 2742.5,943.5 Z"/></g>
<g><path style="opacity:1" fill="#7d705e" d="M 2886.5,675.5 C 2887.5,802.999 2887.83,930.666 2887.5,1058.5C 2886.21,1058.74 2885.21,1058.4 2884.5,1057.5C 2886.5,994.842 2887.16,931.842 2886.5,868.5C 2886.5,857.167 2886.5,845.833 2886.5,834.5C 2886.5,834.167 2886.5,833.833 2886.5,833.5C 2886.5,780.833 2886.5,728.167 2886.5,675.5 Z"/></g>
<g><path style="opacity:1" fill="#bbbab8" d="M 2824.5,878.5 C 2806.93,903.957 2789.6,929.624 2772.5,955.5C 2770.42,957.318 2769.09,959.651 2768.5,962.5C 2772.33,972.011 2776.33,981.344 2780.5,990.5C 2784.66,1001.47 2789.32,1012.14 2794.5,1022.5C 2804.17,1045.17 2813.83,1067.83 2823.5,1090.5C 2824.11,1091.39 2824.44,1092.39 2824.5,1093.5C 2824.66,1095.2 2824.49,1096.87 2824,1098.5C 2804.07,1052.87 2784.24,1007.21 2764.5,961.5C 2784.08,931.328 2803.92,901.328 2824,871.5C 2824.5,873.81 2824.66,876.143 2824.5,878.5 Z"/></g>
<g><path style="opacity:1" fill="#7d7d7d" d="M 2824.5,878.5 C 2824.5,930.167 2824.5,981.833 2824.5,1033.5C 2814.51,1029.84 2804.51,1026.17 2794.5,1022.5C 2789.32,1012.14 2784.66,1001.47 2780.5,990.5C 2780.83,979.813 2780.5,969.146 2779.5,958.5C 2777.06,957.688 2774.72,956.688 2772.5,955.5C 2789.6,929.624 2806.93,903.957 2824.5,878.5 Z"/></g>
<g><path style="opacity:1" fill="#565656" d="M 339.5,882.5 C 326.457,935.548 314.623,988.881 304,1042.5C 281.828,1150.72 270.495,1260.05 270,1370.5C 264.656,1436.02 247.823,1498.35 219.5,1557.5C 205.334,1562 191.001,1566.33 176.5,1570.5C 176.167,1570 175.833,1569.5 175.5,1569C 117.042,1368.98 58.3752,1169.15 -0.5,969.5C -0.5,968.833 -0.5,968.167 -0.5,967.5C 112.933,939.475 226.267,911.142 339.5,882.5 Z"/></g>
<g><path style="opacity:1" fill="#7c7c7c" d="M 1029.5,904.5 C 1032.68,912.687 1035.68,921.021 1038.5,929.5C 1028.99,931.874 1019.66,934.54 1010.5,937.5C 1009.88,937.389 1009.38,937.056 1009,936.5C 1006.39,928.178 1003.89,919.845 1001.5,911.5C 1010.73,908.858 1020.07,906.525 1029.5,904.5 Z"/></g>
<g><path style="opacity:1" fill="#7c7c7c" d="M 1952.5,919.5 C 1955.6,925.802 1957.94,932.469 1959.5,939.5C 1952.84,941.164 1946.17,942.831 1939.5,944.5C 1936.99,938.314 1934.66,931.98 1932.5,925.5C 1939.36,923.79 1946.02,921.79 1952.5,919.5 Z"/></g>
<g><path style="opacity:1" fill="#8f4c04" d="M 2772.5,955.5 C 2774.72,956.688 2777.06,957.688 2779.5,958.5C 2780.5,969.146 2780.83,979.813 2780.5,990.5C 2776.33,981.344 2772.33,972.011 2768.5,962.5C 2769.09,959.651 2770.42,957.318 2772.5,955.5 Z"/></g>
<g><path style="opacity:1" fill="#7c7c7c" d="M 524.5,964.5 C 528.603,973.805 531.936,983.471 534.5,993.5C 524.108,996.015 513.774,998.681 503.5,1001.5C 499.568,991.804 496.235,981.804 493.5,971.5C 503.872,969.324 514.205,966.99 524.5,964.5 Z"/></g>
<g><path style="opacity:1" fill="#7c7c7c" d="M 1533.5,978.5 C 1536.61,985.499 1538.94,992.832 1540.5,1000.5C 1532.12,1002.68 1523.79,1005.01 1515.5,1007.5C 1512.28,1000.52 1509.61,993.182 1507.5,985.5C 1515.98,982.546 1524.65,980.212 1533.5,978.5 Z"/></g>
<g><path style="opacity:1" fill="#8f4b01" d="M 2756.5,978.5 C 2777.34,1024.31 2798,1070.31 2818.5,1116.5C 2818.38,1117.11 2818.04,1117.44 2817.5,1117.5C 2781.5,1104.5 2745.5,1091.5 2709.5,1078.5C 2709.5,1068.83 2709.5,1059.17 2709.5,1049.5C 2725.42,1026 2741.08,1002.34 2756.5,978.5 Z"/></g>
<g><path style="opacity:1" fill="#f2ae24" d="M 3174.5,1091.5 C 3174.5,1091.83 3174.5,1092.17 3174.5,1092.5C 3164.43,1093.68 3154.43,1095.68 3144.5,1098.5C 3140.67,1077.54 3136.34,1056.71 3131.5,1036C 3125.27,1032.73 3119.27,1029.23 3113.5,1025.5C 3120.39,1023.15 3127.55,1021.49 3135,1020.5C 3142.52,1021.76 3150.02,1023.09 3157.5,1024.5C 3162.7,1046.97 3168.37,1069.3 3174.5,1091.5 Z"/></g>
<g><path style="opacity:1" fill="#8f4b01" d="M 2794.5,1022.5 C 2804.51,1026.17 2814.51,1029.84 2824.5,1033.5C 2824.5,1033.83 2824.5,1034.17 2824.5,1034.5C 2824.83,1053.34 2824.5,1072.01 2823.5,1090.5C 2813.83,1067.83 2804.17,1045.17 2794.5,1022.5 Z"/></g>
<g><path style="opacity:1" fill="#904c00" d="M 3113.5,1025.5 C 3119.27,1029.23 3125.27,1032.73 3131.5,1036C 3136.34,1056.71 3140.67,1077.54 3144.5,1098.5C 3142.5,1098.83 3140.5,1099.17 3138.5,1099.5C 3135.12,1088.86 3131.62,1078.2 3128,1067.5C 3122.62,1061.79 3117.62,1055.79 3113,1049.5C 3112.18,1041.32 3112.34,1033.32 3113.5,1025.5 Z"/></g>
<g><path style="opacity:1" fill="#7c7c7c" d="M 546.5,1028.5 C 549.697,1038.09 552.697,1047.76 555.5,1057.5C 545.124,1060.01 534.791,1062.68 524.5,1065.5C 520.796,1056.06 517.462,1046.39 514.5,1036.5C 524.993,1033.23 535.659,1030.56 546.5,1028.5 Z"/></g>
<g><path style="opacity:1" fill="#7c7c7c" d="M 1550.5,1031.5 C 1553.94,1038.8 1556.6,1046.47 1558.5,1054.5C 1549.83,1056.83 1541.17,1059.17 1532.5,1061.5C 1529.19,1054.22 1526.85,1046.56 1525.5,1038.5C 1534.15,1036.92 1542.48,1034.59 1550.5,1031.5 Z"/></g>
<g><path style="opacity:1" fill="#766451" d="M 2824.5,1034.5 C 2825.83,1054.17 2825.83,1073.83 2824.5,1093.5C 2824.44,1092.39 2824.11,1091.39 2823.5,1090.5C 2824.5,1072.01 2824.83,1053.34 2824.5,1034.5 Z"/></g>
<g><path style="opacity:1" fill="#a78263" d="M 2848.5,1043.5 C 2849.49,1043.33 2850.16,1043.66 2850.5,1044.5C 2849.5,1063.66 2849.17,1082.99 2849.5,1102.5C 2848.5,1083.01 2848.17,1063.34 2848.5,1043.5 Z"/></g>
<g><path style="opacity:1" fill="#585858" d="M 2709.5,1049.5 C 2709.5,1059.17 2709.5,1068.83 2709.5,1078.5C 2707.11,1077.7 2704.78,1076.7 2702.5,1075.5C 2702.17,1073 2701.83,1070.5 2701.5,1068C 2701.63,1060.72 2704.29,1054.55 2709.5,1049.5 Z"/></g>
<g><path style="opacity:1" fill="#d97000" d="M 2700.5,1098.5 C 2750.75,1119.03 2801.09,1139.36 2851.5,1159.5C 2674.21,1219.43 2496.88,1279.26 2319.5,1339C 2318.04,1339.42 2317.54,1340.26 2318,1341.5C 2329.37,1352.54 2341.03,1363.2 2353,1373.5C 2353.5,1382.83 2353.67,1392.16 2353.5,1401.5C 2344.17,1394.17 2334.83,1386.83 2325.5,1379.5C 2326.4,1376.93 2328.06,1374.93 2330.5,1373.5C 2331.43,1372.23 2331.59,1370.9 2331,1369.5C 2328.89,1367.2 2326.39,1365.53 2323.5,1364.5C 2320.82,1365.51 2318.15,1366.51 2315.5,1367.5C 2315.5,1358.83 2315.5,1350.17 2315.5,1341.5C 2082.71,1419.43 1850.05,1497.76 1617.5,1576.5C 1572.68,1543.26 1527.68,1510.26 1482.5,1477.5C 1489.54,1474.26 1496.88,1471.59 1504.5,1469.5C 1507.01,1471.92 1510.01,1473.59 1513.5,1474.5C 1516.92,1473.63 1520.25,1472.46 1523.5,1471C 1524.21,1468.17 1524.88,1465.34 1525.5,1462.5C 1618.26,1433.14 1710.93,1403.48 1803.5,1373.5C 1803.33,1374.82 1803.66,1375.99 1804.5,1377C 1806.66,1377.91 1808.66,1379.08 1810.5,1380.5C 1811.11,1380.38 1811.44,1380.04 1811.5,1379.5C 1814.94,1378.91 1818.27,1377.91 1821.5,1376.5C 1822.48,1373.57 1822.82,1370.57 1822.5,1367.5C 1910.76,1338.97 1999.09,1310.64 2087.5,1282.5C 2088.93,1285.91 2091.59,1287.91 2095.5,1288.5C 2099.11,1287.3 2102.78,1286.3 2106.5,1285.5C 2106.5,1282.17 2106.5,1278.83 2106.5,1275.5C 2297.63,1214.85 2488.63,1153.68 2679.5,1092C 2686.81,1092.98 2693.81,1095.15 2700.5,1098.5 Z M 2305.5,1375.5 C 2304.17,1377.17 2302.83,1378.83 2301.5,1380.5C 2298.83,1382.17 2296.17,1383.83 2293.5,1385.5C 2290.89,1384.56 2288.89,1382.89 2287.5,1380.5C 2293.5,1378.83 2299.5,1377.17 2305.5,1375.5 Z"/></g>
<g><path style="opacity:1" fill="#5a5958" d="M 3217.5,1101.5 C 3209.76,1098.07 3201.6,1096.73 3193,1097.5C 3170.81,1097.57 3149.31,1101.4 3128.5,1109C 3123.34,1111.41 3118.34,1114.08 3113.5,1117C 3111.56,1118.43 3110.23,1120.27 3109.5,1122.5C 3107.84,1120.56 3107.17,1118.23 3107.5,1115.5C 3108.17,1115.5 3108.5,1115.17 3108.5,1114.5C 3117.74,1107.88 3127.74,1102.88 3138.5,1099.5C 3140.5,1099.17 3142.5,1098.83 3144.5,1098.5C 3154.43,1095.68 3164.43,1093.68 3174.5,1092.5C 3186.52,1091.03 3198.52,1091.19 3210.5,1093C 3215.64,1093.63 3217.97,1096.46 3217.5,1101.5 Z"/></g>
<g><path style="opacity:1" fill="#959595" d="M 3217.5,1101.5 C 3218.78,1103.54 3218.61,1105.54 3217,1107.5C 3207.51,1115.34 3196.68,1120.5 3184.5,1123C 3164.54,1128.69 3144.21,1131.03 3123.5,1130C 3118.85,1129.67 3114.52,1128.34 3110.5,1126C 3109.66,1124.99 3109.33,1123.82 3109.5,1122.5C 3110.23,1120.27 3111.56,1118.43 3113.5,1117C 3118.34,1114.08 3123.34,1111.41 3128.5,1109C 3149.31,1101.4 3170.81,1097.57 3193,1097.5C 3201.6,1096.73 3209.76,1098.07 3217.5,1101.5 Z"/></g>
<g><path style="opacity:1" fill="#7c7c7c" d="M 1092.5,1099.5 C 1096.07,1107.53 1099.07,1115.86 1101.5,1124.5C 1092.5,1127.17 1083.5,1129.83 1074.5,1132.5C 1073.88,1132.39 1073.38,1132.06 1073,1131.5C 1070.34,1123.19 1067.84,1114.86 1065.5,1106.5C 1074.46,1104.01 1083.46,1101.68 1092.5,1099.5 Z"/></g>
<g><path style="opacity:1" fill="#575656" d="M 2849.5,1102.5 C 2858.84,1102.33 2868.17,1102.5 2877.5,1103C 2880.37,1105.7 2883.04,1108.54 2885.5,1111.5C 2873.5,1111.5 2861.5,1111.5 2849.5,1111.5C 2849.5,1108.5 2849.5,1105.5 2849.5,1102.5 Z"/></g>
<g><path style="opacity:1" fill="#f1ad24" d="M 3011.5,1148.5 C 3013.16,1155.16 3014.83,1161.83 3016.5,1168.5C 3014.59,1169.48 3012.59,1170.14 3010.5,1170.5C 3007.5,1170.5 3004.5,1170.5 3001.5,1170.5C 2998.11,1152.48 2994.61,1134.48 2991,1116.5C 2987.12,1113.8 2982.95,1111.47 2978.5,1109.5C 2986.33,1106.78 2994.17,1107.11 3002,1110.5C 3005.2,1123.29 3008.36,1135.95 3011.5,1148.5 Z"/></g>
<g><path style="opacity:1" fill="#914c00" d="M 2978.5,1109.5 C 2982.95,1111.47 2987.12,1113.8 2991,1116.5C 2994.61,1134.48 2998.11,1152.48 3001.5,1170.5C 3000.17,1170.5 2998.83,1170.5 2997.5,1170.5C 2995.88,1169.96 2994.22,1169.63 2992.5,1169.5C 2991.81,1165.42 2990.81,1161.42 2989.5,1157.5C 2989.1,1147.48 2985.26,1139.14 2978,1132.5C 2977.18,1124.66 2977.34,1116.99 2978.5,1109.5 Z"/></g>
<g><path style="opacity:1" fill="#7c7c7c" d="M 1110.5,1154.5 C 1113.87,1162.93 1116.87,1171.6 1119.5,1180.5C 1110.26,1182.72 1101.26,1185.39 1092.5,1188.5C 1089.13,1180.06 1086.13,1171.39 1083.5,1162.5C 1092.63,1159.97 1101.63,1157.3 1110.5,1154.5 Z"/></g>
<g><path style="opacity:1" fill="#5a5856" d="M 2892.5,1158.5 C 2892.5,1158.83 2892.5,1159.17 2892.5,1159.5C 2883.61,1159.87 2876.77,1163.87 2872,1171.5C 2864.19,1185.86 2863.52,1200.53 2870,1215.5C 2871.73,1217.4 2873.56,1219.07 2875.5,1220.5C 2865.71,1218.04 2860.71,1211.7 2860.5,1201.5C 2858.76,1189.48 2861.26,1178.48 2868,1168.5C 2873.75,1159.21 2881.92,1155.87 2892.5,1158.5 Z"/></g>
<g><path style="opacity:1" fill="#959595" d="M 2892.5,1159.5 C 2895.09,1160.13 2897.42,1161.3 2899.5,1163C 2904.91,1169.63 2907.58,1177.13 2907.5,1185.5C 2906.66,1198.34 2901.66,1209.17 2892.5,1218C 2887.18,1221.46 2881.52,1222.3 2875.5,1220.5C 2873.56,1219.07 2871.73,1217.4 2870,1215.5C 2863.52,1200.53 2864.19,1185.86 2872,1171.5C 2876.77,1163.87 2883.61,1159.87 2892.5,1159.5 Z"/></g>
<g><path style="opacity:1" fill="#eca111" d="M 2851.5,1159.5 C 2850.78,1170.53 2849.78,1181.53 2848.5,1192.5C 2847.21,1192.26 2846.21,1192.6 2845.5,1193.5C 2694.64,1244.56 2543.64,1295.23 2392.5,1345.5C 2391.67,1336.01 2391.17,1326.34 2391,1316.5C 2379,1335.17 2367,1353.83 2355,1372.5C 2354.5,1381.49 2354.33,1390.49 2354.5,1399.5C 2354.67,1400.49 2354.34,1401.16 2353.5,1401.5C 2353.67,1392.16 2353.5,1382.83 2353,1373.5C 2341.03,1363.2 2329.37,1352.54 2318,1341.5C 2317.54,1340.26 2318.04,1339.42 2319.5,1339C 2496.88,1279.26 2674.21,1219.43 2851.5,1159.5 Z"/></g>
<g><path style="opacity:1" fill="#575756" d="M 2997.5,1170.5 C 2998.83,1170.5 3000.17,1170.5 3001.5,1170.5C 3004.5,1170.5 3007.5,1170.5 3010.5,1170.5C 3010.96,1173.48 3011.3,1176.48 3011.5,1179.5C 3014.02,1179.13 3016.02,1179.96 3017.5,1182C 3016.33,1184 3014.99,1185.83 3013.5,1187.5C 3016.83,1204.5 3020.17,1221.5 3023.5,1238.5C 3021.83,1244.67 3019.33,1245 3016,1239.5C 3011.18,1222.23 3006.68,1204.9 3002.5,1187.5C 2996.65,1186.94 2995.98,1184.61 3000.5,1180.5C 2999.49,1177.14 2998.49,1173.8 2997.5,1170.5 Z"/></g>
<g><path style="opacity:1" fill="#7c7c7c" d="M 612.5,1231.5 C 616.599,1240.79 619.932,1250.46 622.5,1260.5C 612.013,1263.33 601.68,1266.33 591.5,1269.5C 587.589,1259.77 584.256,1249.77 581.5,1239.5C 591.876,1236.99 602.209,1234.32 612.5,1231.5 Z"/></g>
<g><path style="opacity:1" fill="#d97000" d="M 2106.5,1251.5 C 2102.78,1252.3 2099.11,1253.3 2095.5,1254.5C 2092.67,1253.92 2090.34,1252.59 2088.5,1250.5C 2091.52,1249.66 2094.52,1248.66 2097.5,1247.5C 2100.85,1248.4 2103.85,1249.73 2106.5,1251.5 Z"/></g>
<g><path style="opacity:1" fill="#c86418" d="M 2088.5,1250.5 C 2090.34,1252.59 2092.67,1253.92 2095.5,1254.5C 2095.5,1265.83 2095.5,1277.17 2095.5,1288.5C 2091.59,1287.91 2088.93,1285.91 2087.5,1282.5C 2087.17,1271.65 2087.51,1260.99 2088.5,1250.5 Z"/></g>
<g><path style="opacity:1" fill="#eca111" d="M 2106.5,1251.5 C 2106.5,1259.5 2106.5,1267.5 2106.5,1275.5C 2106.5,1278.83 2106.5,1282.17 2106.5,1285.5C 2102.78,1286.3 2099.11,1287.3 2095.5,1288.5C 2095.5,1277.17 2095.5,1265.83 2095.5,1254.5C 2099.11,1253.3 2102.78,1252.3 2106.5,1251.5 Z"/></g>
<g><path style="opacity:1" fill="#7c7c7c" d="M 631.5,1288.5 C 635.204,1297.94 638.537,1307.61 641.5,1317.5C 631.105,1320.35 620.772,1323.35 610.5,1326.5C 606.01,1317.37 602.677,1307.7 600.5,1297.5C 610.772,1294.35 621.105,1291.35 631.5,1288.5 Z"/></g>
<g><path style="opacity:1" fill="#f3af24" d="M 2392.5,1345.5 C 2380.19,1363.8 2367.52,1381.8 2354.5,1399.5C 2354.33,1390.49 2354.5,1381.49 2355,1372.5C 2367,1353.83 2379,1335.17 2391,1316.5C 2391.17,1326.34 2391.67,1336.01 2392.5,1345.5 Z"/></g>
<g><path style="opacity:1" fill="#c86617" d="M 2220.5,1336.5 C 2220.5,1347.83 2220.5,1359.17 2220.5,1370.5C 2217.66,1369.83 2215.16,1368.49 2213,1366.5C 2212.17,1355.48 2212.33,1344.48 2213.5,1333.5C 2215.74,1334.79 2218.07,1335.79 2220.5,1336.5 Z"/></g>
<g><path style="opacity:1" fill="#eca011" d="M 2220.5,1370.5 C 2220.5,1359.17 2220.5,1347.83 2220.5,1336.5C 2224.03,1335.27 2227.53,1333.93 2231,1332.5C 2231.5,1344.16 2231.67,1355.83 2231.5,1367.5C 2227.65,1367.89 2223.99,1368.89 2220.5,1370.5 Z"/></g>
<g><path style="opacity:1" fill="#d97000" d="M 1822.5,1341.5 C 1818.57,1342.39 1814.9,1343.72 1811.5,1345.5C 1808.96,1343.98 1806.29,1342.65 1803.5,1341.5C 1806.6,1339.88 1809.93,1338.54 1813.5,1337.5C 1816.77,1338.47 1819.77,1339.8 1822.5,1341.5 Z"/></g>
<g><path style="opacity:1" fill="#c86518" d="M 1803.5,1341.5 C 1806.29,1342.65 1808.96,1343.98 1811.5,1345.5C 1811.5,1356.83 1811.5,1368.17 1811.5,1379.5C 1811.44,1380.04 1811.11,1380.38 1810.5,1380.5C 1808.66,1379.08 1806.66,1377.91 1804.5,1377C 1803.66,1375.99 1803.33,1374.82 1803.5,1373.5C 1803.5,1362.83 1803.5,1352.17 1803.5,1341.5 Z"/></g>
<g><path style="opacity:1" fill="#eca112" d="M 2315.5,1367.5 C 2312.81,1370.18 2309.81,1372.52 2306.5,1374.5C 2305.83,1374.5 2305.5,1374.83 2305.5,1375.5C 2299.5,1377.17 2293.5,1378.83 2287.5,1380.5C 2282.06,1376.23 2276.73,1371.73 2271.5,1367C 2268.63,1365.54 2265.63,1365.21 2262.5,1366C 2258.66,1368.64 2256.33,1372.14 2255.5,1376.5C 2255.67,1377.83 2255.83,1379.17 2256,1380.5C 2259.04,1383.37 2261.87,1386.37 2264.5,1389.5C 2048.81,1461.06 1833.47,1533.4 1618.5,1606.5C 1618.17,1606.5 1617.83,1606.5 1617.5,1606.5C 1617.5,1596.5 1617.5,1586.5 1617.5,1576.5C 1850.05,1497.76 2082.71,1419.43 2315.5,1341.5C 2315.5,1350.17 2315.5,1358.83 2315.5,1367.5 Z"/></g>
<g><path style="opacity:1" fill="#eca111" d="M 1822.5,1341.5 C 1822.5,1350.17 1822.5,1358.83 1822.5,1367.5C 1822.82,1370.57 1822.48,1373.57 1821.5,1376.5C 1818.27,1377.91 1814.94,1378.91 1811.5,1379.5C 1811.5,1368.17 1811.5,1356.83 1811.5,1345.5C 1814.9,1343.72 1818.57,1342.39 1822.5,1341.5 Z"/></g>
<g><path style="opacity:1" fill="#8b8886" d="M 2325.5,1379.5 C 2323.5,1380.83 2321.5,1382.17 2319.5,1383.5C 2314.05,1379.57 2308.05,1378.57 2301.5,1380.5C 2302.83,1378.83 2304.17,1377.17 2305.5,1375.5C 2306.17,1375.5 2306.5,1375.17 2306.5,1374.5C 2309.81,1372.52 2312.81,1370.18 2315.5,1367.5C 2318.15,1366.51 2320.82,1365.51 2323.5,1364.5C 2326.39,1365.53 2328.89,1367.2 2331,1369.5C 2331.59,1370.9 2331.43,1372.23 2330.5,1373.5C 2328.06,1374.93 2326.4,1376.93 2325.5,1379.5 Z"/></g>
<g><path style="opacity:1" fill="#898987" d="M 2287.5,1380.5 C 2288.89,1382.89 2290.89,1384.56 2293.5,1385.5C 2288.41,1391.35 2284.08,1397.68 2280.5,1404.5C 2275.59,1399.05 2270.26,1394.05 2264.5,1389.5C 2261.87,1386.37 2259.04,1383.37 2256,1380.5C 2255.83,1379.17 2255.67,1377.83 2255.5,1376.5C 2256.33,1372.14 2258.66,1368.64 2262.5,1366C 2265.63,1365.21 2268.63,1365.54 2271.5,1367C 2276.73,1371.73 2282.06,1376.23 2287.5,1380.5 Z"/></g>
<g><path style="opacity:1" fill="#d87105" d="M 2319.5,1383.5 C 2319.5,1383.83 2319.5,1384.17 2319.5,1384.5C 2312.62,1382.51 2306.28,1383.67 2300.5,1388C 2288.26,1397.98 2282.76,1410.82 2284,1426.5C 2284.88,1429.65 2286.05,1432.65 2287.5,1435.5C 2282.64,1433.47 2279.81,1429.8 2279,1424.5C 2278.2,1417.72 2278.7,1411.06 2280.5,1404.5C 2284.08,1397.68 2288.41,1391.35 2293.5,1385.5C 2296.17,1383.83 2298.83,1382.17 2301.5,1380.5C 2308.05,1378.57 2314.05,1379.57 2319.5,1383.5 Z"/></g>
<g><path style="opacity:1" fill="#f2ae24" d="M 2319.5,1384.5 C 2323.39,1386.24 2325.89,1389.24 2327,1393.5C 2330.06,1413.87 2322.56,1429.04 2304.5,1439C 2297.91,1441.68 2292.24,1440.52 2287.5,1435.5C 2286.05,1432.65 2284.88,1429.65 2284,1426.5C 2282.76,1410.82 2288.26,1397.98 2300.5,1388C 2306.28,1383.67 2312.62,1382.51 2319.5,1384.5 Z"/></g>
<g><path style="opacity:1" fill="#c86417" d="M 1940.5,1430.5 C 1940.5,1442.17 1940.5,1453.83 1940.5,1465.5C 1938.03,1464.43 1935.7,1463.1 1933.5,1461.5C 1932.17,1449.83 1932.17,1438.17 1933.5,1426.5C 1936.06,1427.61 1938.39,1428.94 1940.5,1430.5 Z"/></g>
<g><path style="opacity:1" fill="#ec9f11" d="M 1940.5,1465.5 C 1940.5,1453.83 1940.5,1442.17 1940.5,1430.5C 1944.07,1429.02 1947.74,1427.69 1951.5,1426.5C 1952.83,1438.17 1952.83,1449.83 1951.5,1461.5C 1947.76,1462.85 1944.1,1464.19 1940.5,1465.5 Z"/></g>
<g><path style="opacity:1" fill="#da7000" d="M 1525.5,1434.5 C 1521.1,1434.93 1517.1,1436.26 1513.5,1438.5C 1510.75,1436.82 1508.09,1435.16 1505.5,1433.5C 1508.8,1432.51 1512.13,1431.51 1515.5,1430.5C 1519.17,1431.27 1522.5,1432.61 1525.5,1434.5 Z"/></g>
<g><path style="opacity:1" fill="#c86518" d="M 1505.5,1433.5 C 1508.09,1435.16 1510.75,1436.82 1513.5,1438.5C 1513.5,1450.5 1513.5,1462.5 1513.5,1474.5C 1510.01,1473.59 1507.01,1471.92 1504.5,1469.5C 1504.17,1457.32 1504.5,1445.32 1505.5,1433.5 Z"/></g>
<g><path style="opacity:1" fill="#eca111" d="M 1525.5,1434.5 C 1525.5,1443.83 1525.5,1453.17 1525.5,1462.5C 1524.88,1465.34 1524.21,1468.17 1523.5,1471C 1520.25,1472.46 1516.92,1473.63 1513.5,1474.5C 1513.5,1462.5 1513.5,1450.5 1513.5,1438.5C 1517.1,1436.26 1521.1,1434.93 1525.5,1434.5 Z"/></g>
<g><path style="opacity:1" fill="#8f4b00" d="M 1482.5,1477.5 C 1527.68,1510.26 1572.68,1543.26 1617.5,1576.5C 1617.5,1586.5 1617.5,1596.5 1617.5,1606.5C 1617.17,1606.5 1616.83,1606.5 1616.5,1606.5C 1572.18,1572.36 1527.68,1538.36 1483,1504.5C 1482.5,1495.51 1482.33,1486.51 1482.5,1477.5 Z"/></g>
<g><path style="opacity:1" fill="#c86418" d="M 1640.5,1523.5 C 1642.75,1524.46 1645.08,1525.12 1647.5,1525.5C 1647.67,1538.17 1647.5,1550.84 1647,1563.5C 1645.17,1561.92 1643.17,1560.59 1641,1559.5C 1640.5,1547.5 1640.33,1535.5 1640.5,1523.5 Z"/></g>
<g><path style="opacity:1" fill="#eca111" d="M 1655.5,1523.5 C 1656.83,1523.5 1658.17,1523.5 1659.5,1523.5C 1659.83,1535.52 1659.5,1547.52 1658.5,1559.5C 1655.27,1560.91 1651.94,1561.91 1648.5,1562.5C 1648.33,1550.5 1648.5,1538.5 1649,1526.5C 1651.29,1525.58 1653.46,1524.58 1655.5,1523.5 Z"/></g>
</svg>
